<?xml version="1.0" encoding="UTF-8" standalone="no"?>
<!DOCTYPE svg PUBLIC "-//W3C//DTD SVG 1.1//EN" "http://www.w3.org/Graphics/SVG/1.1/DTD/svg11.dtd">
<svg xmlns="http://www.w3.org/2000/svg" xmlns:xlink="http://www.w3.org/1999/xlink" version="1.1" width="511.51664pt" height="158.35832pt" viewBox="0 0 511.51664 158.35832">
<g enable-background="new">
<symbol id="font_0_1">
<path d="M .67 .23300001 C .67200008 .238 .6750001 .245 .6750001 .24700001 C .6750001 .24800001 .6750001 .25800003 .66300007 .25800003 C .65400007 .25800003 .65200009 .252 .65000006 .246 C .58500006 .098000008 .54800006 .031000002 .37700004 .031000002 L .23100002 .031000002 C .21700002 .031000002 .21500002 .031000002 .209 .032 C .19900002 .033 .19600001 .034 .19600001 .042000005 C .19600001 .045 .19600001 .047000003 .201 .065000008 L .269 .33800004 L .36800004 .33800004 C .453 .33800004 .453 .317 .453 .29200004 C .453 .28500004 .453 .273 .44600005 .24300002 C .444 .238 .44300003 .23500002 .44300003 .23200001 C .44300003 .22700002 .44700004 .22100002 .45600004 .22100002 C .46400006 .22100002 .467 .22600001 .47100003 .24100001 L .52800008 .47500003 C .52800008 .48100005 .52300009 .48600004 .51600006 .48600004 C .507 .48600004 .50500008 .48000003 .50200006 .46800003 C .48100008 .39200003 .46300007 .36900003 .371 .36900003 L .277 .36900003 L .337 .61 C .34600003 .64500007 .347 .64900007 .39100004 .64900007 L .53200009 .64900007 C .65400007 .64900007 .6840001 .62 .6840001 .53800007 C .6840001 .514 .6840001 .512 .68000009 .485 C .68000009 .47900004 .679 .47200004 .679 .467 C .679 .462 .68200007 .455 .69100007 .455 C .702 .455 .70300009 .46100004 .70500007 .48000003 L .725 .65300008 C .72800007 .68 .72300007 .68 .6980001 .68 L .193 .68 C .17300001 .68 .163 .68 .163 .66 C .163 .64900007 .172 .64900007 .19100002 .64900007 C .228 .64900007 .25599999 .64900007 .25599999 .63100007 C .25599999 .62700006 .25599999 .625 .251 .60700008 L .119 .078 C .109 .039 .10700001 .031000002 .027999998 .031000002 C .011 .031000002 0 .031000002 0 .012 C 0 0 .009 0 .027999998 0 L .54700008 0 C .57000008 0 .57100006 .001 .57800009 .017 L .67 .23300001 Z "/>
</symbol>
<use xlink:href="#font_0_1" transform="matrix(27.673888,0,0,-27.673888,34.668264,30.49443)"/>
<symbol id="font_1_3">
<path d="M .36 .386 C .33400003 .38 .31800003 .359 .31800003 .33900003 C .31800003 .316 .338 .307 .351 .307 C .361 .307 .39900003 .313 .39900003 .364 C .39900003 .42900003 .32700003 .451 .266 .451 C .11000001 .451 .08200001 .336 .08200001 .305 C .08200001 .268 .10300001 .24400002 .117000009 .23200003 C .143 .21200001 .16100002 .20800002 .23000002 .19600001 C .25100003 .19200002 .315 .18 .315 .13000001 C .315 .113000009 .30400003 .075 .262 .050000006 C .22299999 .028 .174 .028 .162 .028 C .122 .028 .065000008 .037 .042000005 .07 C .07500001 .074 .09700001 .099 .09700001 .127 C .09700001 .15200001 .079 .16400002 .058000007 .16400002 C .029 .16400002 0 .14100002 0 .097 C 0 .037 .064 0 .16100002 0 C .345 0 .379 .126 .379 .165 C .379 .257 .278 .275 .241 .282 C .232 .284 .20700002 .28800003 .201 .29 C .164 .297 .146 .31800003 .146 .34 C .146 .363 .164 .39000003 .18599999 .404 C .213 .421 .248 .423 .26500003 .423 C .286 .423 .338 .42000003 .36 .386 Z "/>
</symbol>
<symbol id="font_1_4">
<path d="M .204 .405 L .30600003 .405 C .32500003 .405 .33800004 .405 .33800004 .42700003 C .33800004 .441 .32500003 .441 .30800004 .441 L .21300003 .441 L .25000004 .58900007 C .25100003 .59400007 .25300003 .59900006 .25300003 .60300007 C .25300003 .621 .23900002 .635 .21900001 .635 C .194 .635 .17900002 .61800006 .17200002 .592 C .16500002 .56700006 .178 .615 .134 .441 L .031999999 .441 C .013 .441 0 .441 0 .419 C 0 .405 .011999998 .405 .030000002 .405 L .125 .405 L .066 .16900002 C .060000004 .14400001 .051 .108 .051 .095 C .051 .036000004 .101 0 .15799999 0 C .26900003 0 .33200003 .14000002 .33200003 .15300001 C .33200003 .16600001 .31900005 .16600001 .316 .16600001 C .30400003 .16600001 .30300004 .16400002 .29500003 .14700002 C .26700003 .084 .21600002 .028 .16100002 .028 C .14000002 .028 .12600002 .041 .12600002 .077 C .12600002 .087000008 .13 .108 .132 .118 L .204 .405 Z "/>
</symbol>
<use xlink:href="#font_1_3" transform="matrix(19.371666,0,0,-19.371666,55.419824,34.838144)"/>
<use xlink:href="#font_1_4" transform="matrix(19.371666,0,0,-19.371666,65.29938,34.838144)"/>
<use xlink:href="#font_0_1" transform="matrix(27.673888,0,0,-27.673888,178.84326,30.49443)"/>
<use xlink:href="#font_0_1" transform="matrix(27.673888,0,0,-27.673888,304.4238,30.49443)"/>
<use xlink:href="#font_1_3" transform="matrix(19.371666,0,0,-19.371666,325.17817,34.838144)"/>
<use xlink:href="#font_1_4" transform="matrix(19.371666,0,0,-19.371666,335.0577,34.838144)"/>
<use xlink:href="#font_0_1" transform="matrix(27.673888,0,0,-27.673888,450.19325,30.49443)"/>
<symbol id="font_0_2">
<path d="M .572 .591 C .62100008 .669 .66300007 .67200008 .70000007 .674 C .712 .6750001 .71300008 .69200006 .71300008 .693 C .71300008 .70100006 .70800009 .70500007 .70000007 .70500007 C .674 .70500007 .64500007 .702 .61800006 .702 C .58500006 .702 .55100008 .70500007 .51900008 .70500007 C .513 .70500007 .50000008 .70500007 .50000008 .68600007 C .50000008 .6750001 .509 .674 .51600006 .674 C .54300007 .67200008 .56200006 .66200008 .56200006 .64100006 C .56200006 .62600007 .54700008 .60400006 .54700008 .60300007 L .24000001 .115 L .17200002 .64400008 C .17200002 .6610001 .19500003 .674 .24100003 .674 C .25500003 .674 .26600004 .674 .26600004 .69400009 C .26600004 .70300009 .25800003 .70500007 .25200004 .70500007 C .21200001 .70500007 .169 .702 .12800002 .702 C .11000001 .702 .091 .70300009 .07300001 .70300009 C .055000009 .70300009 .036000007 .70500007 .019000002 .70500007 C .012000002 .70500007 0 .70500007 0 .68600007 C 0 .674 .009000003 .674 .024999999 .674 C .08100001 .674 .08200001 .665 .085 .64000007 L .164 .023000002 C .167 .0030000006 .171 0 .18400002 0 C .20000002 0 .20400003 .005000001 .21200001 .018000002 L .572 .591 Z "/>
</symbol>
<use xlink:href="#font_0_2" transform="matrix(27.673888,0,0,-27.673888,44.327497,124.2338)"/>
<use xlink:href="#font_0_2" transform="matrix(27.673888,0,0,-27.673888,166.03029,124.2338)"/>
<symbol id="font_2_6">
<path d="M .16900002 .411 L .254 .411 C .27100004 .411 .282 .411 .282 .43000005 C .282 .44200004 .273 .44200004 .25700004 .44200004 L .177 .44200004 L .214 .59000006 C .21800001 .60400006 .21800001 .606 .21800001 .611 C .21800001 .632 .20100002 .637 .191 .637 C .166 .637 .156 .616 .15200001 .601 L .113000009 .44200004 L .027999998 .44200004 C .011 .44200004 0 .44200004 0 .42300005 C 0 .411 .008999996 .411 .024999999 .411 L .105000007 .411 L .033 .124000009 C .031999999 .120000008 .027999998 .104 .027999998 .09 C .027999998 .040000004 .061000006 0 .113000009 0 C .214 0 .265 .14900002 .265 .15400002 C .265 .16400002 .25700004 .16400002 .25 .16400002 C .23800002 .16400002 .23800002 .16300002 .23 .14500001 C .212 .097 .172 .022000002 .11500001 .022000002 C .088 .022000002 .088 .047000003 .088 .063 C .088 .07000001 .088 .086 .095 .11400001 L .16900002 .411 Z "/>
</symbol>
<symbol id="font_2_3">
<path d="M .28500004 .25800003 L .264 .17400001 C .252 .12400001 .24600002 .10300001 .21800003 .069000009 C .178 .022 .13800001 .022 .12300001 .022 C .11 .022 .078999999 .022 .052 .033000009 C .072 .04100001 .08400001 .062000008 .08400001 .07900001 C .08400001 .09200001 .075 .11100001 .049000004 .11100001 C .031000004 .11100001 0 .09700001 0 .058000015 C 0 .018000007 .037 0 .12100001 0 C .22600001 0 .30200003 .066 .321 .14200002 L .43 .58000007 C .43400003 .595 .43400003 .597 .43400003 .6010001 C .43400003 .62200006 .41700004 .62700006 .407 .62700006 C .395 .62700006 .372 .6190001 .36800004 .59000006 C .354 .6190001 .32700003 .6470001 .284 .6470001 C .172 .6470001 .057000005 .499 .057000005 .35800005 C .057000005 .273 .104 .20500002 .179 .20500002 C .23000002 .20500002 .273 .24600002 .28500004 .25800003 M .35000003 .51900008 L .305 .337 C .29700003 .305 .236 .22700002 .18100001 .22700002 C .127 .22700002 .125 .30300004 .125 .314 C .125 .36200003 .155 .47900004 .17600002 .526 C .201 .58000007 .245 .625 .284 .625 C .344 .625 .35300002 .541 .35300002 .533 L .35000003 .51900008 Z "/>
</symbol>
<use xlink:href="#font_2_6" transform="matrix(27.673888,0,0,-27.673888,183.14331,131.41828)"/>
<use xlink:href="#font_2_3" transform="matrix(27.673888,0,0,-27.673888,191.27945,136.787)"/>
<use xlink:href="#font_2_6" transform="matrix(27.673888,0,0,-27.673888,205.06104,131.41828)"/>
<use xlink:href="#font_0_2" transform="matrix(27.673888,0,0,-27.673888,314.08583,124.2338)"/>
<use xlink:href="#font_0_2" transform="matrix(27.673888,0,0,-27.673888,435.78865,124.2338)"/>
<symbol id="font_2_5">
<path d="M .171 .20800002 C .215 .19800002 .26000003 .18800001 .26000003 .134 C .26000003 .102000009 .23300001 .022000002 .13000001 .022000002 C .10800001 .022000002 .049999998 .027000003 .034 .078 C .08500001 .083000008 .08500001 .12500002 .08500001 .127 C .08500001 .14600002 .072 .15900001 .051 .15900001 C .027999998 .15900001 0 .14200002 0 .097 C 0 .036000004 .058 0 .12900001 0 C .279 0 .317 .12200001 .317 .16800002 C .317 .25500003 .23900002 .27300004 .19800002 .28200004 C .17 .28800003 .134 .29600004 .134 .33900003 C .134 .36300005 .155 .43100003 .23500002 .43100003 C .26200003 .43100003 .29900003 .42100004 .31 .38200004 C .278 .37800003 .27 .351 .27 .34100003 C .27 .33 .27600003 .31300003 .3 .31300003 C .317 .31300003 .34300003 .32500003 .34300003 .36800004 C .34300003 .41400004 .30200003 .45300005 .236 .45300005 C .119 .45300005 .07800001 .35700003 .07800001 .305 C .07800001 .22800002 .143 .21400002 .171 .20800002 Z "/>
</symbol>
<symbol id="font_2_4">
<path d="M .17500001 .29900003 C .176 .30200003 .22100002 .43100003 .307 .43100003 C .312 .43100003 .34 .43100003 .36 .41700004 C .32500003 .40600003 .32200004 .374 .32200004 .36900003 C .32200004 .35600005 .33100004 .337 .35700003 .337 C .37500004 .337 .40600003 .351 .40600003 .39000003 C .40600003 .44200004 .34100003 .45300005 .30800004 .45300005 C .23900002 .45300005 .20300001 .40300004 .187 .381 C .176 .43400003 .13700001 .45300005 .104 .45300005 C .068 .45300005 .048000009 .43000005 .031999999 .40000005 C .012999997 .36 0 .30100004 0 .29900003 C 0 .28900004 .009999998 .28900004 .015000001 .28900004 C .028000005 .28900004 .029 .29000003 .034 .31200005 C .052 .38200004 .07100001 .43100003 .102 .43100003 C .128 .43100003 .128 .40200005 .128 .39100004 C .128 .37500004 .125 .35600005 .12100001 .34000004 L .046000005 .040000004 C .044 .034 .042999999 .029000003 .042999999 .026 C .042999999 .015000001 .051 0 .07100001 0 C .10100001 0 .10800001 .029000003 .11 .037 L .17500001 .29900003 Z "/>
</symbol>
<symbol id="font_2_1">
<path d="M .32500003 .388 C .275 .38200004 .275 .34100003 .275 .33900003 C .275 .323 .286 .307 .30900003 .307 C .336 .307 .36 .32900004 .36 .367 C .36 .41600005 .317 .45300005 .253 .45300005 C .12900001 .45300005 0 .31100003 0 .16500002 C 0 .06600001 .059000009 0 .14699999 0 C .275 0 .358 .1 .358 .115 C .358 .120000008 .35 .13100001 .342 .13100001 C .338 .13100001 .337 .13000001 .329 .120000008 C .255 .026 .16600001 .022000002 .14899999 .022000002 C .095000009 .022000002 .07 .067 .07 .12500002 C .07 .17800002 .09700001 .28300003 .123 .33100004 C .15900001 .39600004 .20899999 .43100003 .254 .43100003 C .26500003 .43100003 .31 .42900003 .32500003 .388 Z "/>
</symbol>
<use xlink:href="#font_2_5" transform="matrix(27.673888,0,0,-27.673888,452.48655,128.07939)"/>
<use xlink:href="#font_2_4" transform="matrix(27.673888,0,0,-27.673888,463.99888,128.07939)"/>
<use xlink:href="#font_2_1" transform="matrix(27.673888,0,0,-27.673888,475.01313,128.07939)"/>
<path transform="matrix(2.7777777,0,0,-2.7777777,259.84165,74.03889)" stroke-width=".39848" stroke-linecap="butt" stroke-miterlimit="10" stroke-linejoin="miter" fill="none" stroke="#000000" d="M -60.25862 18.16724 L -34.42535 18.16724 "/>
<path transform="matrix(-2.7777777,0,0,2.7777777,93.01002,23.57433)" stroke-width=".39848" stroke-linecap="round" stroke-linejoin="round" fill="none" stroke="#000000" d="M 2.07213 2.39091 C 1.69356 .95633 .84995 .27893 0 0 C .84995 -.27893 1.69356 -.95633 2.07213 -2.39091 "/>
<path transform="matrix(2.7777777,0,0,-2.7777777,164.7691,23.57433)" stroke-width=".39848" stroke-linecap="round" stroke-linejoin="round" fill="none" stroke="#000000" d="M -2.07213 2.39091 C -1.69356 .95633 -.84995 .27893 0 0 C -.84995 -.27893 -1.69356 -.95633 -2.07213 -2.39091 "/>
<symbol id="font_1_1">
<path d="M .042000005 .21800001 C .032000007 .18600002 0 .113000009 0 .085 C 0 .045 .031000004 0 .098000008 0 C .143 0 .194 .018000002 .23500002 .051000004 C .291 .097 .3 .15100001 .3 .15300001 C .3 .16600001 .28700004 .16600001 .284 .16600001 C .27100004 .16600001 .26900003 .16200002 .26500003 .14700002 C .24000001 .074 .16100002 .028 .10000001 .028 C .08600001 .028 .073 .031000004 .073 .063 C .073 .07 .073 .085 .08500001 .115 C .13900002 .259 .17500001 .41500003 .17500001 .419 C .17500001 .437 .16100002 .451 .141 .451 C .12200001 .451 .105000007 .437 .09900001 .425 C .09200001 .40600003 .083000008 .358 .07700001 .33900003 C .07100001 .323 .060000004 .28 .055000009 .264 L .042000005 .21800001 Z "/>
</symbol>
<use xlink:href="#font_1_1" transform="matrix(19.371666,0,0,-19.371666,114.12239,14.490928)"/>
<symbol id="font_3_3">
<path d="M .39200003 .38900004 C .35700003 .37900005 .352 .34900005 .352 .33900003 C .352 .314 .37300004 .30300004 .39 .30300004 C .402 .30300004 .44300003 .31200005 .44300003 .365 C .44300003 .43200005 .36400003 .45300005 .289 .45300005 C .12000001 .45300005 .08800001 .35000003 .08800001 .314 C .08800001 .27800004 .109000008 .257 .127 .24300002 C .155 .22300002 .185 .21900001 .238 .21000003 C .301 .20000002 .37100003 .18900001 .37100003 .13800001 C .37100003 .13700001 .37100003 .034 .187 .034 C .14899999 .034 .087000008 .037 .055 .068 C .09100001 .076000008 .107000019 .105000007 .107000019 .12900001 C .107000019 .15700002 .086 .17000002 .064 .17000002 C .030000009 .17000002 0 .143 0 .098000008 C 0 0 .15600002 0 .185 0 C .39 0 .425 .11800001 .425 .15900001 C .425 .24900002 .315 .26600004 .263 .275 C .192 .286 .143 .29400004 .143 .335 C .143 .33600004 .143 .41900004 .287 .41900004 C .31300003 .41900004 .36600004 .41700004 .39200003 .38900004 Z "/>
</symbol>
<symbol id="font_3_4">
<path d="M .23 .397 L .348 .397 C .36900003 .397 .37 .39800004 .375 .40200005 C .38 .40600003 .38300003 .41900004 .38300003 .42500005 C .38300003 .44200004 .36800004 .44200004 .351 .44200004 L .24100001 .44200004 L .26200003 .525 C .268 .551 .28000004 .596 .28000004 .602 C .28000004 .619 .26700003 .637 .24300002 .637 C .226 .637 .202 .626 .19400002 .599 C .189 .582 .20100002 .629 .154 .44200004 L .034999998 .44200004 C .015000001 .44200004 0 .44200004 0 .41400004 C 0 .397 .013999999 .397 .031999999 .397 L .143 .397 L .08400001 .16200002 C .078999999 .14000002 .070999998 .109000008 .070999998 .097 C .070999998 .040000004 .124 0 .19400002 0 C .315 0 .389 .135 .389 .15500002 C .389 .16900002 .37200005 .16900002 .36800004 .16900002 C .352 .16900002 .35000003 .16500002 .34500004 .15200001 C .31200005 .080000009 .25 .034 .198 .034 C .166 .034 .156 .057000005 .156 .087000008 C .156 .10300001 .157 .106000009 .15900001 .115 L .23 .397 Z "/>
</symbol>
<use xlink:href="#font_3_3" transform="matrix(13.836944,0,0,-13.836944,122.4718,17.21608)"/>
<use xlink:href="#font_3_4" transform="matrix(13.836944,0,0,-13.836944,131.31362,17.21608)"/>
<path transform="matrix(2.7777777,0,0,-2.7777777,259.84165,74.03889)" stroke-width=".39848" stroke-linecap="butt" stroke-miterlimit="10" stroke-linejoin="miter" fill="none" stroke="#000000" d="M -74.13075 10.3368 L -74.13075 -6.79922 "/>
<path transform="matrix(0,2.7777777,2.7777777,0,53.922906,93.47905)" stroke-width=".39848" stroke-linecap="round" stroke-linejoin="round" fill="none" stroke="#000000" d="M -2.07213 2.39091 C -1.69356 .95633 -.84995 .27893 0 0 C -.84995 -.27893 -1.69356 -.95633 -2.07213 -2.39091 "/>
<use xlink:href="#font_2_6" transform="matrix(27.673888,0,0,-27.673888,8.476648,73.768299)"/>
<use xlink:href="#font_2_3" transform="matrix(27.673888,0,0,-27.673888,16.61277,79.13703)"/>
<use xlink:href="#font_2_6" transform="matrix(27.673888,0,0,-27.673888,30.394368,73.768299)"/>
<symbol id="font_3_2">
<path d="M .47300006 .829 C .47300006 .852 .45600004 .8720001 .42900003 .8720001 C .39800004 .8720001 .367 .842 .367 .81200006 C .367 .788 .386 .76900008 .411 .76900008 C .44500003 .76900008 .47300006 .801 .47300006 .829 M .25500003 .16000001 C .236 .08400001 .17300001 .03400001 .112 .03400001 C .095 .03400001 .08400001 .037 .076000008 .039000006 C .10000001 .053000004 .10700001 .07900001 .10700001 .09200001 C .10700001 .10900001 .095 .13300002 .062000008 .13300002 C .028000005 .13300002 0 .102000009 0 .069000009 C 0 .026000008 .045 0 .113000009 0 C .18100001 0 .31100003 .03500001 .342 .15900001 L .432 .517 C .43400003 .52700009 .43700005 .536 .43700005 .5500001 C .43700005 .607 .38400004 .6470001 .314 .6470001 C .193 .6470001 .119 .512 .119 .492 C .119 .47800002 .135 .47800002 .14 .47800002 C .155 .47800002 .157 .48200003 .16200002 .492 C .208 .59000006 .27600003 .61300006 .31 .61300006 C .35000003 .61300006 .35200004 .577 .35200004 .56000009 C .35200004 .546 .351 .54200008 .349 .53400006 L .25500003 .16000001 Z "/>
</symbol>
<use xlink:href="#font_3_2" transform="matrix(13.836944,0,0,-13.836944,37.58696,83.06434)"/>
<path transform="matrix(2.7777777,0,0,-2.7777777,259.84165,74.03889)" stroke-width=".39848" stroke-linecap="butt" stroke-miterlimit="10" stroke-linejoin="miter" fill="none" stroke="#000000" d="M 36.8553 18.16724 L 63.26143 18.16724 "/>
<path transform="matrix(-2.7777777,0,0,2.7777777,362.7709,23.57433)" stroke-width=".39848" stroke-linecap="round" stroke-linejoin="round" fill="none" stroke="#000000" d="M 2.07213 2.39091 C 1.69356 .95633 .84995 .27893 0 0 C .84995 -.27893 1.69356 -.95633 2.07213 -2.39091 "/>
<path transform="matrix(2.7777777,0,0,-2.7777777,436.12129,23.57433)" stroke-width=".39848" stroke-linecap="round" stroke-linejoin="round" fill="none" stroke="#000000" d="M -2.07213 2.39091 C -1.69356 .95633 -.84995 .27893 0 0 C -.84995 -.27893 -1.69356 -.95633 -2.07213 -2.39091 "/>
<use xlink:href="#font_1_1" transform="matrix(19.371666,0,0,-19.371666,384.67515,14.490928)"/>
<use xlink:href="#font_3_3" transform="matrix(13.836944,0,0,-13.836944,393.02458,17.21608)"/>
<use xlink:href="#font_3_4" transform="matrix(13.836944,0,0,-13.836944,401.8664,17.21608)"/>
<path transform="matrix(2.7777777,0,0,-2.7777777,259.84165,74.03889)" stroke-width=".39848" stroke-linecap="butt" stroke-miterlimit="10" stroke-linejoin="miter" fill="none" stroke="#000000" d="M 22.98318 10.3368 L 22.98318 -6.79922 "/>
<path transform="matrix(0,2.7777777,2.7777777,0,323.6838,93.47905)" stroke-width=".39848" stroke-linecap="round" stroke-linejoin="round" fill="none" stroke="#000000" d="M -2.07213 2.39091 C -1.69356 .95633 -.84995 .27893 0 0 C -.84995 -.27893 -1.69356 -.95633 -2.07213 -2.39091 "/>
<use xlink:href="#font_2_5" transform="matrix(27.673888,0,0,-27.673888,276.20878,74.55718)"/>
<use xlink:href="#font_2_4" transform="matrix(27.673888,0,0,-27.673888,287.7211,74.55718)"/>
<use xlink:href="#font_2_1" transform="matrix(27.673888,0,0,-27.673888,298.7353,74.55718)"/>
<symbol id="font_3_1">
<path d="M .305 .635 C .305 .659 .287 .67800006 .26100005 .67800006 C .233 .67800006 .2 .651 .2 .61800006 C .2 .59000006 .22200002 .575 .24300002 .575 C .27600003 .575 .305 .605 .305 .635 M .352 .15500002 C .352 .16900002 .33500005 .16900002 .33100004 .16900002 C .314 .16900002 .31300003 .16500002 .30700005 .14600002 C .29000003 .091000009 .24500002 .034 .19500001 .034 C .172 .034 .165 .05 .165 .072000008 C .165 .093 .17 .104 .17800002 .123 C .186 .143 .19400002 .16300002 .19900002 .17700002 C .203 .18600002 .242 .279 .25599999 .31500004 C .264 .335 .27000005 .34800003 .27000005 .365 C .27000005 .41300003 .22400002 .45300005 .161 .45300005 C .055999996 .45300005 0 .32500003 0 .298 C 0 .284 .016000003 .284 .020999998 .284 C .038000004 .284 .039000006 .28900004 .044 .30400003 C .066 .37500004 .11400001 .41900004 .157 .41900004 C .17600002 .41900004 .18700002 .40800003 .18700002 .381 C .18700002 .37700004 .18700002 .36400003 .18100001 .34500004 C .17400001 .32700003 .12900001 .22000002 .11500001 .18600002 C .10800001 .16900002 .10800001 .16700001 .09300001 .13300002 C .088 .119 .082 .105000007 .082 .08800001 C .082 .036000004 .13100001 0 .191 0 C .296 0 .352 .13000001 .352 .15500002 Z "/>
</symbol>
<use xlink:href="#font_3_1" transform="matrix(13.836944,0,0,-13.836944,309.6647,77.17442)"/>
<path transform="matrix(2.7777777,0,0,-2.7777777,259.84165,74.03889)" stroke-width=".39848" stroke-linecap="butt" stroke-miterlimit="10" stroke-linejoin="miter" fill="none" stroke="#000000" d="M -25.57378 -7.19771 L -25.57378 11.43271 "/>
<path transform="matrix(0,-2.7777777,-2.7777777,-0,188.80339,41.727888)" stroke-width=".39848" stroke-linecap="round" stroke-linejoin="round" fill="none" stroke="#000000" d="M -2.07213 2.39091 C -1.69356 .95633 -.84995 .27893 0 0 C -.84995 -.27893 -1.69356 -.95633 -2.07213 -2.39091 "/>
<symbol id="font_4_1">
<path d="M .49200005 .675 C .49300004 .679 .495 .68600007 .495 .69 C .495 .70500007 .47900004 .704 .468 .703 L .36 .694 C .347 .693 .33400003 .69200006 .33400003 .671 C .33400003 .657 .347 .657 .36 .657 C .408 .657 .408 .65000006 .408 .64100006 C .408 .638 .408 .63600006 .40400005 .62200006 L .34800003 .395 C .32500003 .43 .291 .451 .24900002 .451 C .127 .451 0 .31 0 .16400002 C 0 .057000005 .068 0 .14200002 0 C .206 0 .259 .047000003 .279 .068 C .29200004 .020000002 .33900003 0 .375 0 C .40600003 0 .43200005 .015000001 .454 .051000004 C .47800005 .09 .49200005 .15 .49200005 .15300001 C .49200005 .16600001 .47900004 .16600001 .47100003 .16600001 C .453 .16600001 .45200003 .16400002 .44600005 .13900002 C .43200005 .087000008 .41500003 .028 .37800003 .028 C .35000003 .028 .34600003 .058000003 .34600003 .075 C .34600003 .092 .351 .113000009 .35200004 .116000007 L .49200005 .675 M .28500004 .14600002 C .277 .115 .255 .091 .23200003 .069000009 C .19100002 .033000005 .16 .028 .14500001 .028 C .09900001 .028 .076000008 .071 .076000008 .123 C .076000008 .165 .100999999 .275 .12900001 .329 C .16100002 .388 .20900002 .423 .24900002 .423 C .317 .423 .33 .336 .33 .326 C .33 .323 .32900004 .319 .32700003 .312 L .28500004 .14600002 Z "/>
</symbol>
<symbol id="font_4_2">
<path d="M .152 .23800002 C .19500001 .23800002 .39200003 .23800002 .39200003 .363 C .39200003 .417 .34100003 .451 .27100004 .451 C .159 .451 0 .361 0 .18500002 C 0 .08 .062000008 0 .17 0 C .329 0 .40600003 .094000007 .40600003 .107 C .40600003 .115 .39200003 .13100001 .38300003 .13100001 C .37800003 .13100001 .37500007 .128 .36800004 .120000008 C .30700005 .047000003 .22000002 .028 .17 .028 C .105000007 .028 .07700001 .083000008 .07700001 .14600002 C .07700001 .17700002 .083000008 .20800002 .09 .23800002 L .152 .23800002 M .098000008 .266 C .14300002 .421 .259 .423 .27100004 .423 C .31300003 .423 .34400005 .4 .34400005 .364 C .34400005 .266 .184 .266 .145 .266 L .098000008 .266 Z "/>
</symbol>
<symbol id="font_4_3">
<path d="M .326 .59900006 L .42000003 .59900006 C .43800003 .59900006 .451 .59900006 .451 .62100008 C .451 .63500007 .437 .63500007 .42200003 .63500007 L .333 .63500007 C .344 .70100006 .356 .762 .361 .78300008 C .371 .832 .381 .88000008 .421 .88000008 C .437 .88000008 .453 .87600007 .465 .86600008 C .446 .85800006 .433 .84000006 .433 .82000008 C .433 .791 .45700003 .786 .46800003 .786 C .497 .786 .51900008 .81 .51900008 .841 C .51900008 .884 .47300003 .90800008 .421 .90800008 C .312 .90800008 .289 .79 .283 .759 L .259 .63500007 L .18300002 .63500007 C .165 .63500007 .15300001 .63500007 .15300001 .61300006 C .15300001 .59900006 .165 .59900006 .18100001 .59900006 L .252 .59900006 L .187 .24400002 C .14700002 .027999998 .118 .027999998 .096 .027999998 C .09200001 .027999998 .071 .027999998 .054 .042999999 C .08600001 .05600001 .08600001 .08400001 .08600001 .08800001 C .08600001 .117000009 .062000004 .12200001 .051000004 .12200001 C .022000002 .12200001 0 .098000008 0 .067 C 0 .022 .049000004 0 .095 0 C .19100002 0 .23000002 .128 .24300002 .17600002 C .252 .21000001 .261 .24400002 .267 .278 L .326 .59900006 Z "/>
</symbol>
<use xlink:href="#font_4_1" transform="matrix(19.371666,0,0,-19.371666,197.81284,72.64093)"/>
<use xlink:href="#font_4_2" transform="matrix(19.371666,0,0,-19.371666,209.61017,72.64093)"/>
<use xlink:href="#font_4_3" transform="matrix(19.371666,0,0,-19.371666,217.22324,76.39903)"/>
<path transform="matrix(2.7777777,0,0,-2.7777777,259.84165,74.03889)" stroke-width=".39848" stroke-linecap="butt" stroke-miterlimit="10" stroke-linejoin="miter" fill="none" stroke="#000000" d="M -40.8908 -15.36024 L -65.23074 -15.36024 "/>
<path transform="matrix(2.7777777,0,0,-2.7777777,145.70269,116.706218)" stroke-width=".39848" stroke-linecap="round" stroke-linejoin="round" fill="none" stroke="#000000" d="M 2.07213 2.39091 C 1.69356 .95633 .84995 .27893 0 0 C .84995 -.27893 1.69356 -.95633 2.07213 -2.39091 "/>
<path transform="matrix(-2.7777777,0,0,2.7777777,78.09172,116.706218)" stroke-width=".39848" stroke-linecap="round" stroke-linejoin="round" fill="none" stroke="#000000" d="M -2.07213 2.39091 C -1.69356 .95633 -.84995 .27893 0 0 C -.84995 -.27893 -1.69356 -.95633 -2.07213 -2.39091 "/>
<symbol id="font_1_2">
<path d="M .33 .298 C .38000003 .184 .43700005 .039 .448 .026 C .467 .0019999995 .485 .0019999995 .50100007 .0019999995 L .521 .0019999995 C .54 .0019999995 .55 .0019999995 .55 .014 C .55 .019000002 .54700008 .022 .545 .024 C .53300008 .035000005 .523 .058000007 .51900008 .067 L .275 .64300009 C .268 .6610001 .24800003 .70600005 .142 .70600005 C .13000001 .70600005 .11600001 .70600005 .11600001 .69200006 C .11600001 .68000009 .126 .6790001 .13100001 .67800006 C .15200001 .6750001 .171 .67200008 .19600001 .61500009 L .31500004 .335 L .020000004 .069000009 C .008000001 .059 0 .051 0 .034 C 0 .01 .020000004 0 .034 0 C .053000004 0 .06500001 .013 .068 .016 L .33 .298 Z "/>
</symbol>
<use xlink:href="#font_1_2" transform="matrix(19.371666,0,0,-19.371666,93.397388,136.90189)"/>
<use xlink:href="#font_2_6" transform="matrix(27.673888,0,0,-27.673888,107.6072,147.32386)"/>
<use xlink:href="#font_2_3" transform="matrix(27.673888,0,0,-27.673888,115.74332,152.69258)"/>
<use xlink:href="#font_2_6" transform="matrix(27.673888,0,0,-27.673888,129.52492,147.32386)"/>
<path transform="matrix(2.7777777,0,0,-2.7777777,259.84165,74.03889)" stroke-width=".39848" stroke-linecap="butt" stroke-miterlimit="10" stroke-linejoin="miter" fill="none" stroke="#000000" d="M 72.113 -7.19771 L 72.113 11.43271 "/>
<path transform="matrix(0,-2.7777777,-2.7777777,-0,460.15556,41.727888)" stroke-width=".39848" stroke-linecap="round" stroke-linejoin="round" fill="none" stroke="#000000" d="M -2.07213 2.39091 C -1.69356 .95633 -.84995 .27893 0 0 C -.84995 -.27893 -1.69356 -.95633 -2.07213 -2.39091 "/>
<symbol id="font_2_7">
<path d="M .43 .40200005 C .43200005 .40800003 .43300004 .41300003 .43300004 .41600005 C .43300004 .42700003 .425 .44200004 .40500004 .44200004 C .37500004 .44200004 .36800004 .41300003 .36600004 .40500004 L .293 .113000009 C .28800003 .095000009 .28800003 .093 .279 .080000009 C .26000003 .052 .231 .022000002 .187 .022000002 C .142 .022000002 .133 .06600001 .133 .09900001 C .133 .16000001 .16600001 .25 .19100002 .31800003 C .199 .33900003 .204 .35300002 .204 .37200005 C .204 .42200003 .171 .45300005 .128 .45300005 C .035000005 .45300005 0 .305 0 .29900003 C 0 .28900004 .009999998 .28900004 .015000001 .28900004 C .028000005 .28900004 .029 .291 .033 .305 C .041 .33600004 .068 .43100003 .126 .43100003 C .13700001 .43100003 .148 .42800004 .148 .40200005 C .148 .37800003 .13800001 .351 .12400001 .31200005 C .098000008 .24200002 .072 .16800002 .072 .116000007 C .072 .029000003 .13000001 0 .18400002 0 C .23700002 0 .271 .030000002 .29500003 .060000004 C .31300003 .0060000007 .356 0 .37500004 0 C .41200004 0 .43300004 .025000003 .448 .056 C .46600003 .094000007 .47800005 .15200001 .47800005 .15400002 C .47800005 .16400002 .47000004 .16400002 .463 .16400002 C .45100004 .16400002 .45000006 .16300002 .444 .14100002 C .43 .085 .411 .022000002 .377 .022000002 C .351 .022000002 .351 .049000004 .351 .063 C .351 .07000001 .351 .086 .358 .11400001 L .43 .40200005 Z "/>
</symbol>
<symbol id="font_2_2">
<path d="M .125 .24200002 C .15500002 .24200002 .22200002 .24500002 .26999999 .26400004 C .34900005 .29600004 .34900005 .36100004 .34900005 .36800004 C .34900005 .41400004 .31200005 .45300005 .24800001 .45300005 C .14299999 .45300005 0 .35200004 0 .17500001 C 0 .085 .047999994 0 .14299999 0 C .27100004 0 .35400004 .1 .35400004 .115 C .35400004 .120000008 .34600003 .13100001 .338 .13100001 C .334 .13100001 .333 .13000001 .325 .120000008 C .251 .026 .16200002 .022000002 .145 .022000002 C .08 .022000002 .069000009 .093 .069000009 .13200002 C .069000009 .17000002 .078999999 .21500002 .085999999 .24200002 L .125 .24200002 M .09200001 .26400004 C .135 .42800004 .23800002 .43100003 .24800001 .43100003 C .288 .43100003 .311 .404 .311 .37000004 C .311 .26400004 .14600002 .26400004 .113000009 .26400004 L .09200001 .26400004 Z "/>
</symbol>
<use xlink:href="#font_2_7" transform="matrix(27.673888,0,0,-27.673888,468.9608,73.86552)"/>
<use xlink:href="#font_2_5" transform="matrix(27.673888,0,0,-27.673888,483.62794,73.86552)"/>
<use xlink:href="#font_2_2" transform="matrix(27.673888,0,0,-27.673888,495.99818,73.86552)"/>
<path transform="matrix(2.7777777,0,0,-2.7777777,259.84165,74.03889)" stroke-width=".39848" stroke-linecap="butt" stroke-miterlimit="10" stroke-linejoin="miter" fill="none" stroke="#000000" d="M 56.22314 -15.36024 L 31.8832 -15.36024 "/>
<path transform="matrix(2.7777777,0,0,-2.7777777,415.46363,116.706218)" stroke-width=".39848" stroke-linecap="round" stroke-linejoin="round" fill="none" stroke="#000000" d="M 2.07213 2.39091 C 1.69356 .95633 .84995 .27893 0 0 C .84995 -.27893 1.69356 -.95633 2.07213 -2.39091 "/>
<path transform="matrix(-2.7777777,0,0,2.7777777,347.85267,116.706218)" stroke-width=".39848" stroke-linecap="round" stroke-linejoin="round" fill="none" stroke="#000000" d="M -2.07213 2.39091 C -1.69356 .95633 -.84995 .27893 0 0 C -.84995 -.27893 -1.69356 -.95633 -2.07213 -2.39091 "/>
<use xlink:href="#font_1_2" transform="matrix(19.371666,0,0,-19.371666,361.56126,136.90189)"/>
<use xlink:href="#font_2_5" transform="matrix(27.673888,0,0,-27.673888,375.35874,142.21829)"/>
<use xlink:href="#font_2_4" transform="matrix(27.673888,0,0,-27.673888,386.8711,142.21829)"/>
<use xlink:href="#font_2_1" transform="matrix(27.673888,0,0,-27.673888,397.8853,142.21829)"/>
</g>
</svg>
