<?xml version="1.0" encoding="UTF-8" standalone="no"?>
<!-- Created with Inkscape (http://www.inkscape.org/) -->

<svg
   version="1.1"
   id="svg2"
   width="384.60001"
   height="384"
   viewBox="0 0 384.60001 384"
   sodipodi:docname="Square RBG.eps"
   xmlns:inkscape="http://www.inkscape.org/namespaces/inkscape"
   xmlns:sodipodi="http://sodipodi.sourceforge.net/DTD/sodipodi-0.dtd"
   xmlns="http://www.w3.org/2000/svg"
   xmlns:svg="http://www.w3.org/2000/svg">
  <defs
     id="defs6" />
  <sodipodi:namedview
     id="namedview4"
     pagecolor="#ffffff"
     bordercolor="#000000"
     borderopacity="0.25"
     inkscape:showpageshadow="2"
     inkscape:pageopacity="0.0"
     inkscape:pagecheckerboard="0"
     inkscape:deskcolor="#d1d1d1" />
  <g
     id="g8"
     inkscape:groupmode="layer"
     inkscape:label="ink_ext_XXXXXX"
     transform="matrix(1.3333333,0,0,-1.3333333,0,384)">
    <g
       id="g10"
       transform="scale(0.1)">
      <path
         d="M 2884.54,0 H 0 V 2880 H 2884.54 V 0"
         style="fill:#ffffff;fill-opacity:1;fill-rule:nonzero;stroke:none"
         id="path12" />
      <path
         d="M 2859.57,22.6602 H 24.9336 V 2857.32 H 2859.57 V 22.6602"
         style="fill:#17243f;fill-opacity:1;fill-rule:nonzero;stroke:none"
         id="path14" />
      <path
         d="m 410.004,849.949 c -9.434,-9.437 -24.223,-16.84 -46.41,-16.84 -18.102,0 -35.446,5.621 -47.172,17.352 -15.301,15.301 -14.789,34.668 -14.789,51.5 v 104.549 h 22.945 v -107.1 c 0,-13 -0.508,-25.75 9.695,-35.949 6.883,-6.879 17.59,-10.711 30.086,-10.711 12.496,0 21.93,4.328 28.051,10.449 11.477,11.481 10.457,24.481 10.457,53.301 v 90.01 h 22.442 v -86.451 c 0,-31.61 1.015,-53.797 -15.305,-70.11"
         style="fill:#ffffff;fill-opacity:1;fill-rule:nonzero;stroke:none"
         id="path16" />
      <path
         d="M 589.223,836.43 508.902,971.828 509.41,836.43 H 488.5 v 170.08 h 22.695 l 80.325,-135.908 -0.508,135.908 h 20.906 V 836.43 h -22.695"
         style="fill:#ffffff;fill-opacity:1;fill-rule:nonzero;stroke:none"
         id="path18" />
      <path
         d="m 680.527,836.43 v 170.08 h 22.95 V 836.43 h -22.95"
         style="fill:#ffffff;fill-opacity:1;fill-rule:nonzero;stroke:none"
         id="path20" />
      <path
         d="M 831.016,836.43 H 805.77 l -58.653,170.08 h 23.719 L 819.027,859.891 868.5,1006.51 h 22.184 L 831.016,836.43"
         style="fill:#ffffff;fill-opacity:1;fill-rule:nonzero;stroke:none"
         id="path22" />
      <path
         d="m 935.254,836.43 v 170.08 h 94.096 v -18.869 h -71.655 v -53.539 h 67.315 v -18.364 h -67.315 v -59.929 h 73.695 V 836.43 h -96.136"
         style="fill:#ffffff;fill-opacity:1;fill-rule:nonzero;stroke:none"
         id="path24" />
      <path
         d="m 1158.76,979.48 c -9.18,9.192 -21.17,8.918 -34.94,8.918 h -17.59 v -60.929 h 7.91 c 16.31,0 32.89,-0.52 43.6,10.191 5.36,5.352 8.41,13.262 8.41,21.43 0,9.18 -3.57,16.57 -7.39,20.39 z m 18.11,-143.05 -19.64,44.371 c -11.73,26.269 -17.34,28.558 -40.29,28.558 h -10.71 V 836.43 h -22.44 v 170.08 h 37.74 c 22.69,0 40.29,0.25 54.06,-13.522 8.41,-8.41 13.26,-19.617 13.26,-33.898 0,-11.738 -3.32,-21.68 -10.46,-29.328 -6.12,-6.633 -16.06,-12.25 -27.28,-13.512 5.61,-0.262 11.22,-3.578 14.53,-6.891 5.1,-5.109 8.68,-13.257 13.27,-23.718 l 21.92,-49.211 h -23.96"
         style="fill:#ffffff;fill-opacity:1;fill-rule:nonzero;stroke:none"
         id="path26" />
      <path
         d="m 1288.45,832.859 c -30.09,0 -50.23,16.313 -52.27,18.36 l 10.96,15.812 c 3.07,-2.043 19.64,-14.531 40.3,-14.531 20.91,0 33.15,12.488 33.15,28.039 0,18.621 -20.83,27.789 -39.19,36.723 -21.67,10.457 -40.38,21.679 -40.38,46.668 0,27.031 21.93,45.9 53.3,45.9 31.36,0 46.92,-15.56 48.45,-17.342 l -11.48,-14.789 c -2.04,1.781 -15.55,12.742 -35.44,12.742 -18.61,0 -31.88,-9.179 -31.88,-24.472 0,-16.059 15.05,-22.02 31.88,-30.688 15.04,-7.652 48.45,-19.293 48.45,-52.703 0,-28.039 -20.66,-49.719 -55.85,-49.719"
         style="fill:#ffffff;fill-opacity:1;fill-rule:nonzero;stroke:none"
         id="path28" />
      <path
         d="m 1398.06,836.43 v 170.08 h 22.95 V 836.43 h -22.95"
         style="fill:#ffffff;fill-opacity:1;fill-rule:nonzero;stroke:none"
         id="path30" />
      <path
         d="M 1538.2,987.641 V 836.43 h -22.95 v 151.211 h -49.98 v 18.869 h 122.64 v -18.869 h -49.71"
         style="fill:#ffffff;fill-opacity:1;fill-rule:nonzero;stroke:none"
         id="path32" />
      <path
         d="m 1686.95,903.75 v -67.32 h -22.7 v 67.32 l -53.8,102.76 h 25.07 l 41.49,-80.03 40.68,80.03 h 23.07 l -53.81,-102.76"
         style="fill:#ffffff;fill-opacity:1;fill-rule:nonzero;stroke:none"
         id="path34" />
      <path
         d="m 1930.81,990.441 c -32.39,0 -53.56,-27.281 -53.56,-68.839 0,-41.313 23.72,-68.852 54.82,-68.852 35.45,0 53.81,30.34 53.81,70.379 0,40.551 -22.69,67.312 -55.07,67.312 z m 0.25,-157.332 c -44.88,0 -77.27,36.469 -77.27,87.981 0,52.531 32.13,88.74 78.55,88.74 45.38,0 77,-36.209 77,-87.471 0,-53.039 -31.87,-89.25 -78.28,-89.25"
         style="fill:#ffffff;fill-opacity:1;fill-rule:nonzero;stroke:none"
         id="path36" />
      <path
         d="m 2086.44,987.641 v -53.539 h 65.27 v -18.364 h -65.27 V 836.43 h -22.7 v 170.08 h 92.06 v -18.869 h -69.36"
         style="fill:#ffffff;fill-opacity:1;fill-rule:nonzero;stroke:none"
         id="path38" />
      <path
         d="m 585.543,500.141 c 0,98.898 -46.992,165.73 -128.027,165.73 -87.871,0 -127.813,-80.859 -127.813,-165.73 0,-98.93 46.953,-166.121 127.813,-166.121 88.007,0 128.027,81.05 128.027,166.121 v 0 z m 60.781,2 c 0,-108.93 -83.886,-187.821 -188.808,-187.821 -106.817,0 -188.809,79.899 -188.809,183.809 0,108.84 84.004,187.793 188.809,187.793 106.953,0 188.808,-79.84 188.808,-183.781 v 0 0"
         style="fill:#ffffff;fill-opacity:1;fill-rule:nonzero;stroke:none"
         id="path40" />
      <path
         d="m 1738.41,500.141 c 0,98.898 -46.96,165.73 -127.94,165.73 -87.94,0 -127.87,-80.859 -127.87,-165.73 0,-98.93 46.96,-166.121 127.87,-166.121 87.91,0 127.94,81.05 127.94,166.121 v 0 z m 60.88,2 c 0,-108.93 -83.91,-187.821 -188.82,-187.821 -106.8,0 -188.8,79.899 -188.8,183.809 0,108.84 83.95,187.793 188.8,187.793 106.88,0 188.82,-79.84 188.82,-183.781 v 0 0"
         style="fill:#ffffff;fill-opacity:1;fill-rule:nonzero;stroke:none"
         id="path42" />
      <path
         d="m 2027.13,439.949 c -20.99,30.09 -29,39.141 -54.97,39.141 h -27 V 359.039 c 0,-10.039 3,-14.98 14.99,-17.027 l 40.99,-7.992 v -14.11 h -161.8 v 14.11 l 36.91,7.992 c 12.04,3.047 14.93,6.988 14.93,17.027 v 281.699 c 0,10.051 -3.89,15.09 -14.93,17.094 l -36.91,8.039 v 13.988 h 157.78 c 33.03,0 55.97,-2.968 74.95,-10.007 38.93,-14.993 60.88,-52.122 60.88,-86.891 0,-44.063 -32.91,-80.82 -87.89,-93.859 v -2.032 c 11.04,-4.949 17,-12.082 55.98,-63.101 l 49.96,-64.93 c 6.95,-10.039 14.99,-17.027 27.91,-19.059 l 34.02,-5.96 v -14.11 h -86.87 c -10.04,0 -15.06,3.051 -24.02,15.129 l -74.91,104.91 z m -81.97,59.199 h 44.94 c 67.94,0 81.97,41.723 81.97,82.793 0,30.739 -13.02,55.84 -44.94,69.86 -17.05,7.019 -33.02,8 -54.97,8 h -27 v -160.653 0"
         style="fill:#ffffff;fill-opacity:1;fill-rule:nonzero;stroke:none"
         id="path44" />
      <path
         d="m 1322.76,555.898 h 16.99 V 436.879 h -16.99 l -7.03,34.191 c -2.89,12.969 -10.9,18.032 -22.94,18.032 h -86.87 V 359.039 c 0,-10.039 3,-14.98 14.91,-17.027 l 41.05,-7.992 v -14.11 h -161.91 v 14.11 l 36.91,7.992 c 12.05,3.047 15.06,6.988 15.06,17.027 v 281.699 c 0,10.051 -4.02,15.09 -15.06,17.094 l -36.91,8.039 v 13.988 h 272.75 V 590 h -16.93 l -14.04,50.738 c -4,14.121 -12.03,19.063 -24,19.063 h -111.83 v -150.61 h 86.87 c 12.04,0 20.05,4.688 22.94,17.629 l 7.03,29.078 v 0"
         style="fill:#ffffff;fill-opacity:1;fill-rule:nonzero;stroke:none"
         id="path46" />
      <path
         d="m 2346.84,659.801 v -303.68 c 0,-13.09 2.97,-16.141 15.98,-16.141 h 43.94 c 41.94,0 72.91,5.079 94.9,21.079 37.01,27.062 52.97,73.863 52.97,136.043 0,60.839 -15.96,118.628 -65.93,147.718 -21.08,12.012 -47.97,14.981 -89.95,14.981 h -51.91 z M 2241.9,319.91 v 14.11 l 36.93,7.992 c 12.01,3.047 15.02,6.988 15.02,17.027 v 281.699 c 0,10.051 -4,15.09 -15.02,17.094 l -36.93,8.039 v 13.988 h 168.87 c 45.93,0 78.92,-5.929 105.82,-18.027 68.01,-31.121 98.92,-97.934 98.92,-163.703 0,-64.16 -23.88,-123.957 -84.88,-156.117 -27.97,-14.961 -66.91,-22.102 -117.85,-22.102 H 2241.9 v 0"
         style="fill:#ffffff;fill-opacity:1;fill-rule:nonzero;stroke:none"
         id="path48" />
      <path
         d="M 788.27,334.02 V 319.91 H 659.332 v 14.11 l 31.953,6.968 c 11.992,3.071 21.016,6.981 28.067,16.153 L 827.313,495.059 719.352,640.738 c -7.051,10.051 -16.075,15.09 -27.051,18.082 l -29.903,7.051 v 13.988 h 158.891 v -13.988 l -34.031,-6.07 c -10.942,-1.969 -9.922,-4.942 -3.879,-12.981 l 79.812,-113.011 h 2.036 l 82.871,111.011 c 6.023,8.012 6.023,12.012 -3.008,14 l -31.914,7.051 v 13.988 h 128.804 v -13.988 l -31.89,-7.051 c -12.043,-2.992 -21.074,-7.019 -28.031,-16.031 L 879.27,513.879 994.043,359.039 c 7.017,-10.039 16.047,-14.98 27.077,-18.051 l 29.89,-6.968 V 319.91 H 892.102 v 14.11 l 34.109,5.96 c 10.848,2.032 9.836,5.079 3.973,13.102 l -87.047,121.906 h -1.965 l -88.91,-121.906 c -6.035,-8.023 -6.992,-10.051 3.984,-12.094 l 32.024,-6.968 v 0"
         style="fill:#ffffff;fill-opacity:1;fill-rule:nonzero;stroke:none"
         id="path50" />
      <path
         d="m 1885,2159.08 c 0,-9.2 -4.5,-14.2 -9,-14.2 -2.5,0 -3.7,0.9 -3.7,5.5 v 20 c 0,1.3 0.1,2.5 0.3,2.6 0.4,0.2 1.1,0.4 2.3,0.4 4.4,0 10.1,-3.1 10.1,-14.3"
         style="fill:#ffffff;fill-opacity:1;fill-rule:nonzero;stroke:none"
         id="path52" />
      <path
         d="m 1916.1,2174.08 c -4,0 -7.3,-4.6 -7.3,-13.7 0,-9.4 3.5,-16.3 8.6,-16.3 4.5,0 6.9,4.3 6.9,13.7 0,10.5 -3.7,16.3 -8.2,16.3 z m 0,0 c -4,0 -7.3,-4.6 -7.3,-13.7 0,-9.4 3.5,-16.3 8.6,-16.3 4.5,0 6.9,4.3 6.9,13.7 0,10.5 -3.7,16.3 -8.2,16.3 z m 0,0 c -4,0 -7.3,-4.6 -7.3,-13.7 0,-9.4 3.5,-16.3 8.6,-16.3 4.5,0 6.9,4.3 6.9,13.7 0,10.5 -3.7,16.3 -8.2,16.3 z m 0,0 c -4,0 -7.3,-4.6 -7.3,-13.7 0,-9.4 3.5,-16.3 8.6,-16.3 4.5,0 6.9,4.3 6.9,13.7 0,10.5 -3.7,16.3 -8.2,16.3 z m 0,0 c -4,0 -7.3,-4.6 -7.3,-13.7 0,-9.4 3.5,-16.3 8.6,-16.3 4.5,0 6.9,4.3 6.9,13.7 0,10.5 -3.7,16.3 -8.2,16.3 z m 0,0 c -4,0 -7.3,-4.6 -7.3,-13.7 0,-9.4 3.5,-16.3 8.6,-16.3 4.5,0 6.9,4.3 6.9,13.7 0,10.5 -3.7,16.3 -8.2,16.3 z m 0,0 c -4,0 -7.3,-4.6 -7.3,-13.7 0,-9.4 3.5,-16.3 8.6,-16.3 4.5,0 6.9,4.3 6.9,13.7 0,10.5 -3.7,16.3 -8.2,16.3 z m 0,0 c -4,0 -7.3,-4.6 -7.3,-13.7 0,-9.4 3.5,-16.3 8.6,-16.3 4.5,0 6.9,4.3 6.9,13.7 0,10.5 -3.7,16.3 -8.2,16.3 z m 0,0 c -4,0 -7.3,-4.6 -7.3,-13.7 0,-9.4 3.5,-16.3 8.6,-16.3 4.5,0 6.9,4.3 6.9,13.7 0,10.5 -3.7,16.3 -8.2,16.3 z m 0,0 c -4,0 -7.3,-4.6 -7.3,-13.7 0,-9.4 3.5,-16.3 8.6,-16.3 4.5,0 6.9,4.3 6.9,13.7 0,10.5 -3.7,16.3 -8.2,16.3 z m 0,0 c -4,0 -7.3,-4.6 -7.3,-13.7 0,-9.4 3.5,-16.3 8.6,-16.3 4.5,0 6.9,4.3 6.9,13.7 0,10.5 -3.7,16.3 -8.2,16.3 z m 0,0 c -4,0 -7.3,-4.6 -7.3,-13.7 0,-9.4 3.5,-16.3 8.6,-16.3 4.5,0 6.9,4.3 6.9,13.7 0,10.5 -3.7,16.3 -8.2,16.3 z m 0,0 c -4,0 -7.3,-4.6 -7.3,-13.7 0,-9.4 3.5,-16.3 8.6,-16.3 4.5,0 6.9,4.3 6.9,13.7 0,10.5 -3.7,16.3 -8.2,16.3 z m 0,0 c -4,0 -7.3,-4.6 -7.3,-13.7 0,-9.4 3.5,-16.3 8.6,-16.3 4.5,0 6.9,4.3 6.9,13.7 0,10.5 -3.7,16.3 -8.2,16.3 z m 0,0 c -4,0 -7.3,-4.6 -7.3,-13.7 0,-9.4 3.5,-16.3 8.6,-16.3 4.5,0 6.9,4.3 6.9,13.7 0,10.5 -3.7,16.3 -8.2,16.3 z m 0,0 c -4,0 -7.3,-4.6 -7.3,-13.7 0,-9.4 3.5,-16.3 8.6,-16.3 4.5,0 6.9,4.3 6.9,13.7 0,10.5 -3.7,16.3 -8.2,16.3 z m 0,0 c -4,0 -7.3,-4.6 -7.3,-13.7 0,-9.4 3.5,-16.3 8.6,-16.3 4.5,0 6.9,4.3 6.9,13.7 0,10.5 -3.7,16.3 -8.2,16.3 z m 0,0 c -4,0 -7.3,-4.6 -7.3,-13.7 0,-9.4 3.5,-16.3 8.6,-16.3 4.5,0 6.9,4.3 6.9,13.7 0,10.5 -3.7,16.3 -8.2,16.3 z m 1.3,-30 c 4.5,0 6.9,4.3 6.9,13.7 0,10.5 -3.7,16.3 -8.2,16.3 -4,0 -7.3,-4.6 -7.3,-13.7 0,-9.4 3.5,-16.3 8.6,-16.3 z m 83.5,29.9 c -3.6,-0.3 -4,-0.7 -4,-6.3 v -17.2 c 0,-5.6 0.4,-6 4,-6.3 v -2 H 1984 v 2 c 3.6,0.3 4,0.7 4,6.3 v 17.2 c 0,5.6 -0.4,6 -4,6.3 v 2 h 16.9 z m -16.2,-125 c -2.9,-0.3 -3.7,-0.6 -5.7,-5.3 -0.3,-0.8 -6.6,-16.2 -10.5,-26.8 h -4.1 c -3.6,9.3 -8.4,22.2 -10.3,27.1 -1.7,4.5 -2.8,4.7 -5.3,5 v 2.1 h 16.8 v -2.1 l -1.7,-0.2 c -2,-0.2 -2,-0.6 -1.4,-2.5 1,-2.9 5.1,-13.1 7,-18.2 1.6,4.4 4.9,14.3 5.8,16.8 1.1,3.2 0.7,3.7 -1.6,4 l -1.5,0.1 v 2.1 h 12.5 z m -32.5,-31.8 h -25.9 v 2.1 c 4,0.3 4.4,0.7 4.4,6.3 v 17.1 c 0,5.7 -0.4,6 -3.9,6.3 v 2.1 h 16.9 v -2.1 c -3.7,-0.3 -4.1,-0.6 -4.1,-6.3 v -17.8 c 0,-2.7 0.1,-4 1,-4.5 0.8,-0.4 2,-0.4 3.6,-0.4 1.7,0 4,0.1 5,1.5 0.9,0.9 1.8,2.3 2.6,5.1 l 2.2,-0.4 c -0.3,-1.9 -1.4,-7.4 -1.8,-9 z m -29.1,0 h -25.8 v 2.1 c 4,0.3 4.4,0.7 4.4,6.3 v 17.1 c 0,5.7 -0.4,6 -3.9,6.3 v 2.1 h 16.9 v -2.1 c -3.8,-0.3 -4.2,-0.6 -4.2,-6.3 v -17.8 c 0,-2.7 0.1,-4 1.1,-4.5 0.8,-0.4 2,-0.4 3.6,-0.4 1.7,0 3.9,0.1 5,1.5 0.8,0.9 1.7,2.3 2.5,5.1 l 2.3,-0.4 c -0.3,-1.9 -1.4,-7.4 -1.9,-9 z m -28.4,62.5 h -12.9 v 2 c 2.3,0.1 3.6,0.9 3.9,2.7 0.2,1.6 0.4,4.5 0.4,9.9 v 9.6 c 0,3.9 -0.1,4.5 -1.2,6 -0.7,1.1 -2,1.4 -3.9,1.6 v 2 h 11.5 l 17.3,-21.6 h 0.1 v 7 c 0,5.5 -0.2,8.3 -0.4,9.9 -0.2,1.9 -1.7,2.5 -5.1,2.7 v 2 h 13.3 v -2 c -2.6,-0.1 -4,-0.8 -4.2,-2.7 -0.2,-1.6 -0.4,-4.4 -0.4,-9.9 v -19.6 h -4.5 l -19.3,24.6 h -0.1 v -9.6 c 0,-5.4 0.2,-8.3 0.4,-9.9 0.3,-1.8 1.7,-2.5 5.1,-2.7 z m -0.8,-30.7 c -3.6,-0.3 -4,-0.6 -4,-6.3 v -17.1 c 0,-5.6 0.4,-6 4,-6.3 v -2.1 H 1877 v 2.1 c 3.6,0.3 4,0.7 4,6.3 v 17.1 c 0,5.7 -0.4,6 -4,6.3 v 2.1 h 16.9 z m -34.6,93.2 v 2 c 3.8,0.3 4.2,0.7 4.2,6.3 v 17.2 c 0,5.6 -0.4,6 -3.8,6.3 v 2 h 15.2 c 6.4,0 11.7,-1.3 15.2,-4.6 2.4,-2.4 4.5,-6.2 4.5,-10.7 0,-13 -9.9,-18.5 -21.9,-18.5 z m 57.8,34.6 c 9.6,0 16.9,-7 16.9,-17.3 0,-11.2 -7.6,-18.1 -17.6,-18.1 -10.5,0 -17.3,7.6 -17.3,17.2 0,8.5 5.6,18.2 18,18.2 z m 15.1,-68 c 0.9,-2.9 5.1,-13.2 7,-18.3 1.6,4.5 4.9,14.4 5.8,16.8 1.1,3.2 0.7,3.8 -1.6,4 l -1.6,0.2 v 2 h 12.6 v -2 c -2.9,-0.4 -3.7,-0.6 -5.7,-5.4 -0.3,-0.7 -6.6,-16.1 -10.6,-26.8 h -4 c -3.6,9.4 -8.4,22.3 -10.3,27.2 -1.7,4.4 -2.8,4.7 -5.3,5 v 2 h 16.8 v -2 l -1.7,-0.2 c -2,-0.2 -2,-0.7 -1.4,-2.5 z m 34.3,-15.8 -0.8,0.4 c -4.3,2 -9.1,4.7 -9.1,10.2 0,5.9 4.2,10.7 12.4,10.7 1.6,0 3.3,-0.2 4.8,-0.6 1.2,-0.3 2,-0.5 2.7,-0.7 0.2,-2.1 0.6,-4.6 1.2,-8.2 l -2.3,-0.3 c -1.2,3.4 -3,7.1 -7.1,7.1 -2.7,0 -4.5,-2 -4.5,-4.5 0,-2.6 2,-4.1 5.3,-5.6 l 1.2,-0.6 c 4.8,-2.2 8.9,-4.8 8.9,-10.9 0,-6.4 -5.2,-11.1 -13.2,-11.1 -2.1,0 -4.3,0.4 -5.7,0.9 -1.5,0.5 -2.6,0.9 -3.3,1.3 -0.4,2.3 -1,5.1 -1.7,8.6 l 2.3,0.7 c 1.1,-3 4.2,-8.8 9.3,-8.8 2.7,0 4.8,1.8 4.8,5.2 0,3 -2.1,4.8 -5.2,6.2 z m -29.5,51.2 c 2.5,0.2 3.5,0.7 3.8,2.7 0.2,1.6 0.5,4.3 0.8,9.1 l 0.6,10.5 c 0.3,6.5 -0.1,7.1 -4.2,7.5 v 2 h 12.3 l 9.1,-20.6 7.9,20.6 h 12.7 v -2 c -4,-0.4 -4.2,-0.6 -4,-6.1 l 0.5,-17.4 c 0.1,-5.8 0.2,-5.9 4,-6.3 v -2 h -16.3 v 2 c 3.9,0.4 4.1,0.5 4,6.3 l -0.1,18.3 h -0.3 l -10,-26.1 h -2.8 l -9.5,24.3 h -0.1 l -0.4,-11.6 c -0.2,-4.4 -0.1,-6.9 0.1,-8.5 0.2,-2 1.3,-2.4 4.7,-2.7 v -2 H 1937 Z m 85.8,13.7 c 0,21 -7.1,37.9 -22.4,46.9 -9.7,5.7 -22.7,7.5 -38.8,7.5 h -116.4 v -236.1 H 1972 c 29.3,0 46.6,-6.6 48.1,-32.9 h 2.8 z m -106.7,16.2 c -4,0 -7.3,-4.6 -7.3,-13.7 0,-9.4 3.5,-16.3 8.6,-16.3 4.5,0 6.9,4.3 6.9,13.7 0,10.5 -3.7,16.3 -8.2,16.3 z m 0,0 c -4,0 -7.3,-4.6 -7.3,-13.7 0,-9.4 3.5,-16.3 8.6,-16.3 4.5,0 6.9,4.3 6.9,13.7 0,10.5 -3.7,16.3 -8.2,16.3 z m 0,0 c -4,0 -7.3,-4.6 -7.3,-13.7 0,-9.4 3.5,-16.3 8.6,-16.3 4.5,0 6.9,4.3 6.9,13.7 0,10.5 -3.7,16.3 -8.2,16.3 z m 0,0 c -4,0 -7.3,-4.6 -7.3,-13.7 0,-9.4 3.5,-16.3 8.6,-16.3 4.5,0 6.9,4.3 6.9,13.7 0,10.5 -3.7,16.3 -8.2,16.3 z m 0,0 c -4,0 -7.3,-4.6 -7.3,-13.7 0,-9.4 3.5,-16.3 8.6,-16.3 4.5,0 6.9,4.3 6.9,13.7 0,10.5 -3.7,16.3 -8.2,16.3 z m 0,0 c -4,0 -7.3,-4.6 -7.3,-13.7 0,-9.4 3.5,-16.3 8.6,-16.3 4.5,0 6.9,4.3 6.9,13.7 0,10.5 -3.7,16.3 -8.2,16.3 z m 0,0 c -4,0 -7.3,-4.6 -7.3,-13.7 0,-9.4 3.5,-16.3 8.6,-16.3 4.5,0 6.9,4.3 6.9,13.7 0,10.5 -3.7,16.3 -8.2,16.3 z m 0,0 c -4,0 -7.3,-4.6 -7.3,-13.7 0,-9.4 3.5,-16.3 8.6,-16.3 4.5,0 6.9,4.3 6.9,13.7 0,10.5 -3.7,16.3 -8.2,16.3 z m 0,0 c -4,0 -7.3,-4.6 -7.3,-13.7 0,-9.4 3.5,-16.3 8.6,-16.3 4.5,0 6.9,4.3 6.9,13.7 0,10.5 -3.7,16.3 -8.2,16.3 z m 0,0 c -4,0 -7.3,-4.6 -7.3,-13.7 0,-9.4 3.5,-16.3 8.6,-16.3 4.5,0 6.9,4.3 6.9,13.7 0,10.5 -3.7,16.3 -8.2,16.3 z m 0,0 c -4,0 -7.3,-4.6 -7.3,-13.7 0,-9.4 3.5,-16.3 8.6,-16.3 4.5,0 6.9,4.3 6.9,13.7 0,10.5 -3.7,16.3 -8.2,16.3 z m 0,0 c -4,0 -7.3,-4.6 -7.3,-13.7 0,-9.4 3.5,-16.3 8.6,-16.3 4.5,0 6.9,4.3 6.9,13.7 0,10.5 -3.7,16.3 -8.2,16.3 z m 0,0 c -4,0 -7.3,-4.6 -7.3,-13.7 0,-9.4 3.5,-16.3 8.6,-16.3 4.5,0 6.9,4.3 6.9,13.7 0,10.5 -3.7,16.3 -8.2,16.3 z m 0,0 c -4,0 -7.3,-4.6 -7.3,-13.7 0,-9.4 3.5,-16.3 8.6,-16.3 4.5,0 6.9,4.3 6.9,13.7 0,10.5 -3.7,16.3 -8.2,16.3 z m 0,0 c -4,0 -7.3,-4.6 -7.3,-13.7 0,-9.4 3.5,-16.3 8.6,-16.3 4.5,0 6.9,4.3 6.9,13.7 0,10.5 -3.7,16.3 -8.2,16.3 z m 0,0 c -4,0 -7.3,-4.6 -7.3,-13.7 0,-9.4 3.5,-16.3 8.6,-16.3 4.5,0 6.9,4.3 6.9,13.7 0,10.5 -3.7,16.3 -8.2,16.3 z m 0,0 c -4,0 -7.3,-4.6 -7.3,-13.7 0,-9.4 3.5,-16.3 8.6,-16.3 4.5,0 6.9,4.3 6.9,13.7 0,10.5 -3.7,16.3 -8.2,16.3 z m 0,0 c -4,0 -7.3,-4.6 -7.3,-13.7 0,-9.4 3.5,-16.3 8.6,-16.3 4.5,0 6.9,4.3 6.9,13.7 0,10.5 -3.7,16.3 -8.2,16.3 z m 0,0 c -4,0 -7.3,-4.6 -7.3,-13.7 0,-9.4 3.5,-16.3 8.6,-16.3 4.5,0 6.9,4.3 6.9,13.7 0,10.5 -3.7,16.3 -8.2,16.3 z m 0,0 c -4,0 -7.3,-4.6 -7.3,-13.7 0,-9.4 3.5,-16.3 8.6,-16.3 4.5,0 6.9,4.3 6.9,13.7 0,10.5 -3.7,16.3 -8.2,16.3"
         style="fill:#ffffff;fill-opacity:1;fill-rule:nonzero;stroke:none"
         id="path54" />
      <path
         d="m 2182.4,2164.28 h -0.2 l -3.2,-9.9 h 6.7 z m 0,0 h -0.2 l -3.2,-9.9 h 6.7 z m -22,-53.8 c -4,0 -7.3,-4.6 -7.3,-13.7 0,-9.4 3.5,-16.3 8.6,-16.3 4.5,0 6.9,4.3 6.9,13.7 0,10.5 -3.7,16.3 -8.2,16.3 z m 22,53.8 h -0.2 l -3.2,-9.9 h 6.7 z m 0,0 h -0.2 l -3.2,-9.9 h 6.7 z m -22,-53.8 c -4,0 -7.3,-4.6 -7.3,-13.7 0,-9.4 3.5,-16.3 8.6,-16.3 4.5,0 6.9,4.3 6.9,13.7 0,10.5 -3.7,16.3 -8.2,16.3 z m 0,0 c -4,0 -7.3,-4.6 -7.3,-13.7 0,-9.4 3.5,-16.3 8.6,-16.3 4.5,0 6.9,4.3 6.9,13.7 0,10.5 -3.7,16.3 -8.2,16.3 z m 22,53.8 h -0.2 l -3.2,-9.9 h 6.7 z m 0,0 h -0.2 l -3.2,-9.9 h 6.7 z m -22,-53.8 c -4,0 -7.3,-4.6 -7.3,-13.7 0,-9.4 3.5,-16.3 8.6,-16.3 4.5,0 6.9,4.3 6.9,13.7 0,10.5 -3.7,16.3 -8.2,16.3 z m -7.3,-13.7 c 0,-9.4 3.5,-16.3 8.6,-16.3 4.5,0 6.9,4.3 6.9,13.7 0,10.5 -3.7,16.3 -8.2,16.3 -4,0 -7.3,-4.6 -7.3,-13.7 z m 16.9,-57.4 -3.2,-10 h 6.6 l -3.2,10 z m 12.2,124.9 -3.2,-9.9 h 6.7 l -3.3,9.9 z m 19.8,-23.3 h -16.4 v 2.1 l 1.6,0.2 c 1.9,0.2 2,0.8 1.3,2.6 l -1.9,5.3 h -8.5 l -1.6,-5 c -0.6,-2.2 -0.6,-2.7 1.8,-3 l 1.5,-0.1 v -2.1 h -12.2 v 2.1 c 2.7,0.3 3.5,0.5 5.2,4.9 l 10.4,26.9 3.6,0.7 3.5,-9.8 c 2.3,-6.2 4.5,-12.3 6.5,-17.6 1.7,-4.6 2.6,-4.8 5.2,-5.1 z m -12.3,-124.9 h -16.3 v 2 l 1.6,0.2 c 1.9,0.3 2,0.8 1.3,2.7 l -1.9,5.3 h -8.5 l -1.6,-5 c -0.7,-2.2 -0.7,-2.7 1.7,-3 l 1.6,-0.2 v -2 h -12.2 v 2 c 2.7,0.4 3.5,0.6 5.2,5 l 10.4,26.9 3.6,0.7 3.5,-9.8 c 2.3,-6.2 4.5,-12.4 6.5,-17.7 1.6,-4.5 2.6,-4.8 5.1,-5.1 z m -36.4,0 h -26.5 v 2 c 4,0.3 4.4,0.7 4.4,6.3 v 17.2 c 0,5.6 -0.4,6 -3.9,6.3 v 2 h 24.7 c 0,-0.8 0.3,-4.6 0.6,-8.6 l -2.3,-0.1 c -0.6,2.5 -1.1,4 -2,4.8 -0.8,0.9 -2.5,1.2 -5.3,1.2 h -0.8 c -2,0 -2.1,0 -2.1,-1.8 v -10 h 2.6 c 4.5,0 4.6,0.3 5.1,4.2 h 2.3 v -12.2 h -2.3 c -0.5,4.5 -0.6,4.8 -5.1,4.8 h -2.6 v -8.4 c 0,-2.8 0.1,-4 1,-4.5 0.8,-0.4 2,-0.5 3.6,-0.5 2.1,0 4.4,0.3 5.6,1.6 0.9,0.9 1.7,2.8 2.5,5.3 l 2.3,-0.3 c -0.2,-2.6 -1.3,-7.9 -1.8,-9.3 z m -29.6,0 h -16.3 v 2 c 3.9,0.4 4,0.6 4,6.3 l -0.2,18.4 h -0.2 l -10,-26.1 h -2.8 l -9.6,24.2 h -0.1 l -0.3,-11.5 c -0.2,-4.5 -0.1,-7 0.1,-8.6 0.2,-1.9 1.3,-2.4 4.7,-2.7 v -2 h -12.8 v 2 c 2.5,0.2 3.4,0.8 3.8,2.7 0.2,1.6 0.5,4.4 0.8,9.1 l 0.6,10.5 c 0.3,6.6 -0.1,7.1 -4.2,7.5 v 2 h 12.2 l 9.1,-20.6 8,20.6 h 12.7 v -2 c -4,-0.4 -4.2,-0.6 -4.1,-6 l 0.6,-17.5 c 0.1,-5.7 0.2,-5.9 4,-6.3 z m -45.6,124.9 h -12.9 v 2.1 c 2.5,0.2 3.5,0.7 3.8,2.6 0.3,1.6 0.6,4.4 0.8,9.1 l 0.6,10.5 c 0.4,6.6 0,7.2 -4.1,7.5 v 2.1 h 12.2 l 9.1,-20.6 8,20.6 h 12.6 v -2.1 c -3.9,-0.3 -4.2,-0.5 -4,-6 l 0.5,-17.4 c 0.2,-5.8 0.3,-6 4,-6.3 v -2.1 h -16.3 v 2.1 c 3.9,0.3 4.1,0.5 4,6.3 l -0.1,18.3 h -0.2 l -10.1,-26.1 h -2.8 l -9.5,24.3 h -0.1 l -0.4,-11.6 c -0.1,-4.5 -0.1,-7 0.1,-8.6 0.2,-1.9 1.4,-2.4 4.8,-2.6 z m 34.5,-60.4 v -2 h -18.2 v 2 c 4.1,0.3 4.5,0.7 4.5,6.3 v 22.8 h -0.8 c -3.5,0 -4.9,-0.6 -5.8,-1.6 -0.6,-0.7 -1.2,-2.1 -1.9,-5 h -2.2 c 0.2,4.4 0.5,7.9 0.6,10.6 h 1.7 c 0.7,-1.2 1.3,-1.3 2.7,-1.3 h 20.7 c 1.4,0 1.6,0.3 2.5,1.3 h 1.6 c 0.1,-2.2 0.3,-6.6 0.6,-10.5 l -2.3,-0.1 c -0.8,3.1 -1.4,4.5 -2.2,5.3 -0.8,1 -2.6,1.3 -5.1,1.3 h -1.2 v -22.8 c 0,-5.6 0.4,-6 4.8,-6.3 z m -0.3,62.5 c 3.6,0.3 4,0.6 4,6.3 v 17.1 c 0,5.7 -0.4,6 -4,6.3 v 2.1 h 16.8 v -2.1 c -3.6,-0.3 -4,-0.6 -4,-6.3 v -17.1 c 0,-5.7 0.4,-6 4,-6.3 v -2.1 h -16.8 z m 26.8,-62.5 v -2 h -16.9 v 2 c 3.6,0.3 4,0.7 4,6.3 v 17.2 c 0,5.6 -0.4,6 -4,6.3 v 2 h 16.9 v -2 c -3.6,-0.3 -4,-0.7 -4,-6.3 v -17.2 c 0,-5.6 0.4,-6 4,-6.3 z m 39.2,15.3 c 0,-11.1 -7.6,-18.1 -17.6,-18.1 -10.5,0 -17.3,7.6 -17.3,17.2 0,8.4 5.6,18.2 18.1,18.2 9.5,0 16.8,-7 16.8,-17.3 z m -46.5,79 h 11.5 l 17.3,-21.6 h 0.1 v 6.9 c 0,5.5 -0.2,8.4 -0.4,10 -0.3,1.8 -1.7,2.5 -5.1,2.6 v 2.1 h 13.3 v -2.1 c -2.6,-0.1 -4,-0.8 -4.2,-2.6 -0.2,-1.6 -0.5,-4.5 -0.5,-10 v -19.5 h -4.4 l -19.3,24.5 h -0.1 v -9.5 c 0,-5.5 0.2,-8.4 0.4,-10 0.3,-1.8 1.7,-2.5 5.1,-2.6 v -2.1 h -12.9 v 2.1 c 2.3,0.1 3.6,0.8 3.9,2.6 0.2,1.6 0.4,4.5 0.4,10 v 9.5 c 0,3.9 -0.1,4.6 -1.2,6 -0.7,1.1 -2,1.5 -3.9,1.6 z m -27.4,37.4 c -16.1,0 -29.2,-1.8 -38.8,-7.5 -15.4,-9 -22.5,-25.9 -22.5,-46.9 v -214.6 h 2.8 c 1.5,26.3 18.8,32.9 48.1,32.9 h 127.6 v 236.1 z m 56,-101.8 c -4,0 -7.3,-4.6 -7.3,-13.7 0,-9.4 3.5,-16.3 8.6,-16.3 4.5,0 6.9,4.3 6.9,13.7 0,10.5 -3.7,16.3 -8.2,16.3 z m 22,53.8 h -0.2 l -3.2,-9.9 h 6.7 z m 0,0 h -0.2 l -3.2,-9.9 h 6.7 z m -22,-53.8 c -4,0 -7.3,-4.6 -7.3,-13.7 0,-9.4 3.5,-16.3 8.6,-16.3 4.5,0 6.9,4.3 6.9,13.7 0,10.5 -3.7,16.3 -8.2,16.3 z m 0,0 c -4,0 -7.3,-4.6 -7.3,-13.7 0,-9.4 3.5,-16.3 8.6,-16.3 4.5,0 6.9,4.3 6.9,13.7 0,10.5 -3.7,16.3 -8.2,16.3 z m 22,53.8 h -0.2 l -3.2,-9.9 h 6.7 z m 0,0 h -0.2 l -3.2,-9.9 h 6.7 z m -22,-53.8 c -4,0 -7.3,-4.6 -7.3,-13.7 0,-9.4 3.5,-16.3 8.6,-16.3 4.5,0 6.9,4.3 6.9,13.7 0,10.5 -3.7,16.3 -8.2,16.3 z m 0,0 c -4,0 -7.3,-4.6 -7.3,-13.7 0,-9.4 3.5,-16.3 8.6,-16.3 4.5,0 6.9,4.3 6.9,13.7 0,10.5 -3.7,16.3 -8.2,16.3 z m 22,53.8 h -0.2 l -3.2,-9.9 h 6.7 z m 0,0 h -0.2 l -3.2,-9.9 h 6.7 z m -22,-53.8 c -4,0 -7.3,-4.6 -7.3,-13.7 0,-9.4 3.5,-16.3 8.6,-16.3 4.5,0 6.9,4.3 6.9,13.7 0,10.5 -3.7,16.3 -8.2,16.3"
         style="fill:#ffffff;fill-opacity:1;fill-rule:nonzero;stroke:none"
         id="path56" />
      <path
         d="m 2247.51,2197.28 c 0,0 0,-234.55 0,-253.06 -17.88,0 -184.24,0 -184.24,0 l -2.53,-6.25 c -3,-7.4 -8.41,-14.26 -27.57,-14.26 -19.14,0 -24.55,6.86 -27.55,14.26 l -2.52,6.25 c 0,0 -165.78,0 -183.67,0 0,18.51 0,253.06 0,253.06 h -20 v -6.55 l -14.03,4.31 c -2.05,6.23 -7.85,10.75 -14.76,10.75 -8.61,0 -15.64,-7 -15.64,-15.63 0,-8.64 7.03,-15.64 15.64,-15.64 3.58,0 6.85,1.26 9.49,3.3 l 19.3,-5.91 v -19.32 l -13.88,2.49 c -2.39,5.06 -7.36,8.7 -13.33,8.99 -8.61,0.41 -15.96,-6.23 -16.37,-14.86 -0.41,-8.62 6.25,-15.95 14.87,-16.36 4.53,-0.22 8.67,1.56 11.68,4.51 l 17.03,-3.06 v -19.76 l -14.56,0.65 c -2.79,4.32 -7.61,7.2 -13.13,7.2 -8.61,0 -15.63,-7 -15.63,-15.62 0,-8.63 7.02,-15.64 15.63,-15.64 5.01,0 9.43,2.41 12.29,6.08 l 15.4,-0.67 v -21.49 l -15.05,-0.54 c -2.86,3.72 -7.32,6.17 -12.36,6.17 -8.62,0 -15.63,-7 -15.63,-15.62 0,-8.62 7.01,-15.63 15.63,-15.63 5.46,0 10.27,2.83 13.05,7.09 l 14.36,0.52 v -19.78 l -16.63,-2.87 c -2.83,2.84 -6.74,4.59 -11.06,4.59 -8.61,0 -15.63,-7 -15.63,-15.62 0,-8.64 7.02,-15.63 15.63,-15.63 6.21,0 11.55,3.66 14.07,8.91 l 13.62,2.34 v -19.36 l -18.46,-5.64 c -2.65,2.05 -5.91,3.31 -9.5,3.31 -8.62,0 -15.64,-7 -15.64,-15.63 0,-8.64 7.02,-15.63 15.64,-15.63 6.9,0 12.7,4.51 14.76,10.74 l 13.2,4.03 v -18.63 l -20.63,-8.9 c -2.55,1.57 -5.57,2.43 -8.79,2.3 -8.61,-0.34 -15.34,-7.62 -15,-16.24 0.35,-8.63 7.65,-15.35 16.25,-15 7.29,0.29 13.17,5.55 14.61,12.39 l 13.56,5.85 v -18.35 c 0,0 180.83,0 191.34,0 8.12,-13.5 21.82,-20.51 42.4,-20.51 20.59,0 34.3,7.01 42.42,20.51 10.51,0 191.92,0 191.92,0 v 273.06 h -20"
         style="fill:#ffffff;fill-opacity:1;fill-rule:nonzero;stroke:none"
         id="path58" />
      <path
         d="m 1907.78,2279.39 c -38.53,0 -69.76,-6 -69.76,-13.38 0,-7.4 31.23,-13.38 69.76,-13.38 38.51,0 69.74,5.98 69.74,13.38 0,7.38 -31.23,13.38 -69.74,13.38"
         style="fill:#ffffff;fill-opacity:1;fill-rule:nonzero;stroke:none"
         id="path60" />
      <path
         d="m 2003.82,2365.79 -40.27,-28.3 -0.34,-2.87 9.57,-4.3 c 1.89,-0.94 1.91,-2.47 0.95,-3.39 l -25.31,-21.34 -2.4,0.2 -17.91,26.42 c -1.24,1.71 -0.79,3.42 1.37,3.78 l 12.03,1.96 v 3.04 l -31.18,44.05 h -5.13 l -31.17,-44.05 v -3.04 l 12.03,-1.96 c 2.15,-0.36 2.6,-2.07 1.37,-3.78 l -17.93,-26.42 -2.41,-0.2 -23.61,21.34 c -0.97,0.92 -0.95,2.45 0.94,3.39 l 9.58,4.3 -0.35,2.87 -41.95,28.3 -3.39,-1.34 24.63,-75.24 c 12.5,5.61 41.2,9.57 74.82,9.73 33.62,-0.16 62.33,-4.12 74.83,-9.73 l 24.63,75.24 -3.4,1.34"
         style="fill:#ffffff;fill-opacity:1;fill-rule:nonzero;stroke:none"
         id="path62" />
      <path
         d="m 2032.89,1774.81 c -38.54,0 -69.76,-5.98 -69.76,-13.37 0,-7.4 31.22,-13.38 69.76,-13.38 38.5,0 69.73,5.98 69.73,13.38 0,7.39 -31.23,13.37 -69.73,13.37"
         style="fill:#ffffff;fill-opacity:1;fill-rule:nonzero;stroke:none"
         id="path64" />
      <path
         d="m 2128.92,1861.22 -40.27,-28.3 -0.34,-2.87 9.57,-4.3 c 1.89,-0.95 1.91,-2.47 0.94,-3.39 l -25.29,-21.34 -2.4,0.21 -17.92,26.41 c -1.23,1.72 -0.79,3.41 1.37,3.78 l 12.03,1.96 v 3.04 l -31.18,44.05 h -5.13 l -31.17,-44.05 v -3.04 l 12.03,-1.96 c 2.15,-0.37 2.6,-2.06 1.36,-3.78 l -17.92,-26.41 -2.4,-0.21 -23.62,21.34 c -0.97,0.92 -0.95,2.44 0.94,3.39 l 9.58,4.3 -0.36,2.87 -41.93,28.3 -3.4,-1.33 24.62,-75.24 c 12.5,5.61 41.21,9.57 74.84,9.72 33.62,-0.15 62.33,-4.11 74.83,-9.72 l 24.62,75.24 -3.4,1.33"
         style="fill:#ffffff;fill-opacity:1;fill-rule:nonzero;stroke:none"
         id="path66" />
      <path
         d="m 2157.68,2279.39 c -38.53,0 -69.76,-6 -69.76,-13.38 0,-7.4 31.23,-13.38 69.76,-13.38 38.52,0 69.74,5.98 69.74,13.38 0,7.38 -31.22,13.38 -69.74,13.38"
         style="fill:#ffffff;fill-opacity:1;fill-rule:nonzero;stroke:none"
         id="path68" />
      <path
         d="m 2253.72,2365.79 -40.27,-28.3 -0.35,-2.87 9.57,-4.3 c 1.89,-0.94 1.91,-2.47 0.95,-3.39 l -25.3,-21.34 -2.4,0.2 -17.91,26.42 c -1.24,1.71 -0.8,3.42 1.37,3.78 l 12.03,1.96 v 3.04 l -31.18,44.05 h -5.13 l -31.17,-44.05 v -3.04 l 12.03,-1.96 c 2.15,-0.36 2.6,-2.07 1.37,-3.78 l -17.93,-26.42 -2.4,-0.2 -23.62,21.62 c -0.96,0.92 -0.95,2.44 0.94,3.39 l 9.58,4.02 -0.36,2.87 -41.93,28.3 -3.4,-1.34 24.63,-75.24 c 12.49,5.61 41.2,9.57 74.82,9.73 33.62,-0.16 62.33,-4.12 74.83,-9.73 l 24.62,75.24 -3.39,1.34"
         style="fill:#ffffff;fill-opacity:1;fill-rule:nonzero;stroke:none"
         id="path70" />
      <path
         d="m 2046.64,2568.33 c 0,-7.9 -6.41,-14.29 -14.31,-14.29 -7.9,0 -14.31,6.39 -14.31,14.29 0,7.9 6.41,14.31 14.31,14.31 7.9,0 14.31,-6.41 14.31,-14.31"
         style="fill:#ffffff;fill-opacity:1;fill-rule:nonzero;stroke:none"
         id="path72" />
      <path
         d="m 2380.66,2434.97 c -0.41,-7.9 -7.15,-13.95 -15.03,-13.53 -7.89,0.4 -13.96,7.13 -13.56,15.02 0.41,7.87 7.15,13.94 15.03,13.53 7.89,-0.4 13.96,-7.14 13.56,-15.02"
         style="fill:#ffffff;fill-opacity:1;fill-rule:nonzero;stroke:none"
         id="path74" />
      <path
         d="m 1985.39,1587.52 c 0,-7.9 -6.41,-14.31 -14.31,-14.31 -7.9,0 -14.31,6.41 -14.31,14.31 0,7.91 6.41,14.32 14.31,14.32 7.9,0 14.31,-6.41 14.31,-14.32"
         style="fill:#ffffff;fill-opacity:1;fill-rule:nonzero;stroke:none"
         id="path76" />
      <path
         d="m 2126.26,1564.41 c 0,-7.9 -6.4,-14.3 -14.3,-14.3 -7.9,0 -14.31,6.4 -14.31,14.3 0,7.91 6.41,14.3 14.31,14.3 7.9,0 14.3,-6.39 14.3,-14.3"
         style="fill:#ffffff;fill-opacity:1;fill-rule:nonzero;stroke:none"
         id="path78" />
      <path
         d="m 1586.04,2345.05 v 0 0"
         style="fill:#ffffff;fill-opacity:1;fill-rule:nonzero;stroke:none"
         id="path80" />
      <path
         d="m 2142.91,2501.84 v 0 0"
         style="fill:#ffffff;fill-opacity:1;fill-rule:nonzero;stroke:none"
         id="path82" />
      <path
         d="m 2169.74,2596.11 v 0 0"
         style="fill:#ffffff;fill-opacity:1;fill-rule:nonzero;stroke:none"
         id="path84" />
      <path
         d="m 2393.9,2320.08 v 0 0"
         style="fill:#ffffff;fill-opacity:1;fill-rule:nonzero;stroke:none"
         id="path86" />
      <path
         d="m 2550.95,2009.56 v 0 0"
         style="fill:#ffffff;fill-opacity:1;fill-rule:nonzero;stroke:none"
         id="path88" />
      <path
         d="m 2501.92,1868.31 v 0 0"
         style="fill:#ffffff;fill-opacity:1;fill-rule:nonzero;stroke:none"
         id="path90" />
      <path
         d="m 1649.82,1857.03 c 4.88,-0.03 18.74,-1.37 30.47,-18.04 4.82,-6.86 8.24,-14.95 8.22,-23.41 -0.02,-14.01 -6.85,-22.1 -23.28,-33.67 l -43.59,-30.76 -11.86,16.87 48.82,34.44 c 4.51,3.17 10.54,8.4 10.54,15.1 0.01,3.69 -0.49,6.69 -3.83,11.44 -5.18,7.36 -10.6,7.99 -14.04,7.99 -5.18,0.01 -10.07,-3.11 -20.57,-10.5 l -42.31,-27.57 -11.52,16.38 44.92,29.41 c 11.87,8.35 19.52,12.36 28.03,12.32"
         style="fill:#ffffff;fill-opacity:1;fill-rule:nonzero;stroke:none"
         id="path92" />
      <path
         d="m 1572.18,1896.89 59.68,23.42 6.44,-16.74 -90.1,-34.93 -6.38,17.47 46.61,59.36 -60.11,-21.01 -6.41,17.59 90.92,31.8 6.03,-16.51 -46.68,-60.45"
         style="fill:#ffffff;fill-opacity:1;fill-rule:nonzero;stroke:none"
         id="path94" />
      <path
         d="m 1507.43,2016.74 95.7,14.56 3.1,-20.37 -95.71,-14.56 -3.09,20.37"
         style="fill:#ffffff;fill-opacity:1;fill-rule:nonzero;stroke:none"
         id="path96" />
      <path
         d="m 1599.7,2094.84 -98.14,-29.41 0.88,20.75 73.62,19.84 -71.67,26.4 0.86,20.17 95.3,-37.73 -0.85,-20.02"
         style="fill:#ffffff;fill-opacity:1;fill-rule:nonzero;stroke:none"
         id="path98" />
      <path
         d="m 1515.51,2204.99 16.05,56.41 15.92,-4.53 -10.49,-36.86 21.64,-6.16 9.85,34.62 15.63,-4.43 -9.86,-34.63 23.73,-6.76 10.81,37.98 16.2,-4.61 -16.36,-57.52 -93.12,26.49"
         style="fill:#ffffff;fill-opacity:1;fill-rule:nonzero;stroke:none"
         id="path100" />
      <path
         d="m 1591.88,2342.91 c -4.94,-1.39 -7.5,-5.2 -11.17,-11.8 l -3.19,-5.48 23.48,-12.66 3.97,7.1 c 3.32,5.96 4.05,9.38 2.88,13.52 -0.9,3.16 -3.87,6.48 -6.78,8.1 -3.43,1.9 -6.82,1.9 -9.19,1.22 z m 71.47,-29.32 -28.68,2.54 c -13.58,1.26 -14.9,-1.99 -18.72,-8.84 l -1.13,-2.02 34.03,-18.1 -10.11,-17.9 -85.11,46.59 13.94,24.49 c 6.3,11.29 13.01,23.28 30.04,23.28 10.7,0 25.58,-8.99 25.58,-25.15 0,-2.86 -0.7,-5.9 -1.89,-9.07 3.83,5.51 10.76,6.33 17.05,6.27 3.51,-0.04 6.94,-0.56 9.77,-0.8 l 25.83,-2.27 -10.6,-19.02"
         style="fill:#ffffff;fill-opacity:1;fill-rule:nonzero;stroke:none"
         id="path102" />
      <path
         d="m 1706.23,2504.21 16.45,12.4 58.26,-77.31 -16.45,-12.41 -58.26,77.32"
         style="fill:#ffffff;fill-opacity:1;fill-rule:nonzero;stroke:none"
         id="path104" />
      <path
         d="m 1814.86,2552.21 36.78,-71.34 -18.32,-9.45 -36.78,71.33 -23.6,-12.17 -7.58,14.71 65.41,33.73 7.57,-14.71 -23.48,-12.1"
         style="fill:#ffffff;fill-opacity:1;fill-rule:nonzero;stroke:none"
         id="path106" />
      <path
         d="m 1928.16,2547.03 9.34,-37.46 -19.16,-4.77 -9.33,37.47 -43.64,49.1 20.28,5.06 28.86,-33.78 9.71,43.46 19.46,4.77 -15.52,-63.85"
         style="fill:#ffffff;fill-opacity:1;fill-rule:nonzero;stroke:none"
         id="path108" />
      <path
         d="m 2278.59,2512.26 30.55,-18.2 -8.31,-13.97 -30.55,18.19 -21.23,-35.66 -17.46,10.39 49.52,83.19 49.64,-29.56 -8.47,-14.21 -32.17,19.15 -11.52,-19.32"
         style="fill:#ffffff;fill-opacity:1;fill-rule:nonzero;stroke:none"
         id="path110" />
      <path
         d="m 2452.58,2197.73 26.47,29.13 -38.44,9.09 -6.34,20.22 57.16,-14.93 35.83,41.94 6.64,-21.19 -24.59,-26.85 35.7,-8.6 6.21,-19.8 -53.13,14.23 -38.91,-44.29 -6.6,21.05 v 0"
         style="fill:#ffffff;fill-opacity:1;fill-rule:nonzero;stroke:none"
         id="path112" />
      <path
         d="m 2545.19,2128.72 -22.45,-1.81 2.38,-35.76 -16.23,-1.08 -2.38,35.48 -41.42,-2.8 -1.37,19.45 96.62,7.91 3.86,-58.22 -16.51,-1.1 -2.5,37.93 v 0"
         style="fill:#ffffff;fill-opacity:1;fill-rule:nonzero;stroke:none"
         id="path114" />
      <path
         d="m 2370.9,1639.86 c -92.84,-32.72 -179.54,-30.63 -253.67,-14.28 2.36,31.74 14.18,66.92 33.74,72.21 166.77,50.58 288.5,205.41 288.5,388.14 0,223.64 -182.34,405.59 -406.45,405.59 -224.12,0 -406.45,-181.95 -406.45,-405.59 0,-122.16 55.96,-238.37 150.6,-315.08 -22.18,-10.67 -41.09,-26.95 -55.04,-46.91 -6.66,4.62 -13.07,9.41 -19.08,14.34 l -3.79,-3.81 c 4.12,-4.98 10.24,-11.35 17.67,-18.56 -12.71,-21.11 -20.09,-45.71 -20.09,-72.07 0,-1.82 0.21,-3.58 0.27,-5.37 -141.87,106.65 -225.19,273.77 -223.75,452 1.26,155.05 64.38,298.74 177.74,404.61 105.2,98.25 242.45,151.73 386.46,150.56 308.61,-2.5 557.64,-255.63 555.13,-564.26 -1.43,-175.27 -82.23,-335.71 -221.79,-441.52 z m -324.57,-132.23 c -77.27,0 -173.72,26.27 -239.99,65.37 -19.78,11.67 -43.38,33.37 -43.38,70.42 0,9.63 1.85,18.81 5.06,27.31 25.04,-20.6 50.7,-39.75 66.9,-48.63 3.81,-2.1 6.01,-3.12 10.46,-3.12 10.63,0 19.26,8.67 19.26,19.35 0,8.16 -4.43,14.79 -11.75,17.99 -13.89,6.07 -42.7,18 -73.92,34.07 14.03,18.29 35.98,30.15 60.67,30.15 11.36,0 22.31,-2.44 32.51,-7.26 l 21.1,-12.29 c 67.07,-40.97 238.45,-145.62 446.17,-91.27 -78.45,-68.52 -174.7,-102.09 -293.09,-102.09 z m 64.09,-48.88 c -22.24,0 -38.74,-17.33 -38.74,-38.77 0,-24.99 17.48,-40.03 40.02,-40.03 2.81,0 5.54,0.31 8.18,0.87 -6.72,-31.15 -43.55,-64.89 -87.91,-79.99 -43.61,15.1 -81.03,48.84 -87.74,79.99 2.64,-0.56 5.36,-0.87 8.17,-0.87 22.54,0 40.03,15.04 40.03,40.03 0,21.44 -16.51,38.77 -38.75,38.77 5.6,10.3 11.96,23.01 16.67,36.34 26.19,-4.49 51.97,-6.95 75.98,-6.95 19.38,0 38.22,1 56.62,2.82 2.47,-9.48 8.46,-27.64 10.03,-32.38 -0.79,0.09 -1.62,0.17 -2.56,0.17 z M 1838.6,1765.5 c 40.6,0 78.62,-20.85 100.92,-54.24 -19.61,4.88 -38.85,11.28 -57.62,19.28 l -0.05,-0.12 -0.56,0.32 c -13.07,6.16 -27.09,9.29 -41.65,9.29 -32.33,0 -60.94,-15.83 -78.63,-40.04 -7.41,4.12 -14.79,8.44 -22.06,12.95 21.9,31.71 58.38,52.56 99.65,52.56 z m 153.36,-83.15 c -3.21,-2.81 -5.87,-5.99 -8.03,-9.39 -12.4,5.24 -36.3,16.41 -44.06,21.07 12.26,-3.94 39.67,-10.44 52.09,-11.68 z m 123.42,6.35 c -9.99,-16.11 -16.14,-37.07 -18.26,-58.29 -35.33,9.26 -67.47,21.48 -95.64,34.27 3.9,8.15 13.05,15.71 28.64,15.71 0.97,0 1.94,-0.07 2.9,-0.07 28.21,0 55.75,2.89 82.36,8.38 z m -82.36,11.11 c -22.66,0 -45.01,2.06 -66.97,5.89 -23.65,48.2 -73.55,79.29 -127.45,79.29 -13.82,0 -27.14,-2.07 -39.78,-5.76 -95.09,72.86 -151.72,186.71 -151.72,306.7 0,212.9 173.13,386.1 385.92,386.1 212.79,0 385.91,-173.2 385.91,-386.1 0,-212.91 -173.12,-386.12 -385.91,-386.12 z M 1838.6,1522.19 c -66.85,0 -121.22,54.57 -121.22,121.65 0,20.96 5.31,40.7 14.66,57.94 6.2,-5.63 12.82,-11.48 19.69,-17.39 -5.91,-12.46 -9.3,-26.3 -9.3,-40.97 0,-36.42 18.36,-66.5 53.07,-86.97 20.15,-11.89 43.01,-22.59 67.22,-31.87 -7.88,-1.59 -15.94,-2.39 -24.12,-2.39 z m 774.63,559.04 c 2.59,319.38 -255.57,581.31 -575.5,583.9 -149.49,1.21 -291.92,-54.25 -401.04,-156.15 -117.26,-109.53 -182.56,-258.1 -183.86,-418.36 -1.56,-191.08 91.14,-369.96 248.02,-479.54 14.89,-62.06 70.92,-108.38 137.75,-108.38 19.11,0 37.64,3.74 55.11,11.07 18.6,-5.9 37.67,-10.88 56.69,-14.87 -6.17,-17.01 -14.93,-33.02 -23.46,-47.52 l 13.88,-13.89 c 3.32,2.21 7.23,3.28 11.14,3.3 10.62,0 20.79,-7.27 20.71,-20.38 0,-10.66 -7.19,-20.64 -22.12,-20.63 -8.1,0.01 -18.59,4.28 -24.25,16.4 0,0 -3.77,-11.81 -3.77,-26.03 0,-43.07 46.8,-90.47 109.44,-110.31 62.99,19.69 109.6,67.24 109.6,110.31 0,14.22 -3.76,26.03 -3.76,26.03 -5.67,-12.12 -16.15,-16.39 -24.25,-16.4 -14.93,-0.01 -22.13,9.97 -22.13,20.63 -0.08,13.11 10.09,20.38 20.71,20.38 3.92,-0.02 7.82,-1.09 11.15,-3.3 l 12.75,12.68 0.32,0.18 0.54,0.68 c 0.05,-0.04 0.12,-0.05 0.17,-0.1 l 0.02,0.35 0.08,0.1 -0.06,0.1 v 0.02 c -6.27,15.01 -10.84,28.7 -14.06,41.75 103.88,14.24 191.57,58.35 261.37,131.72 l -0.1,0.14 c 144.03,109.5 227.44,275.19 228.91,456.12"
         style="fill:#ffffff;fill-opacity:1;fill-rule:nonzero;stroke:none"
         id="path116" />
      <path
         d="m 1723.8,2400.27 c 0,-8.29 -3.62,-17.04 -10.86,-24.96 -13.92,-15.21 -28.75,-16.59 -30.3,-16.56 l -4.21,16.05 c 2.34,0.62 13.23,2.85 20.97,11.31 3.49,3.83 5.3,7.91 5.3,11.5 0,3.83 -2.52,10.46 -10.39,10.46 -8.42,0 -22.48,-12.19 -36.91,-12.19 -5.54,0 -11.69,0.77 -18.11,6.66 -6.19,5.66 -9.06,12.88 -9.06,20.23 0,8.03 3.67,16.46 10.48,23.9 12.93,14.14 27.16,15.28 28.39,15.34 l 3.47,-15.76 c -1.63,-0.28 -12.21,-2.6 -18.78,-9.77 -3.37,-3.69 -5.15,-7.7 -5.15,-11.21 0,-3.81 2.42,-8.49 8.71,-8.57 6.91,-0.09 24.32,12.64 38.48,12.64 6.57,0 11.34,-1.16 17.98,-7.25 6.66,-6.08 9.99,-13.74 9.99,-21.82"
         style="fill:#ffffff;fill-opacity:1;fill-rule:nonzero;stroke:none"
         id="path118" />
      <path
         d="m 2197.9,2553.42 c 0,6.68 -1.51,13.67 -5.55,19.1 -4.21,5.64 -11.11,9.58 -19.27,9.58 -17.35,0 -30.06,-21.52 -30.06,-39.3 0,-16.5 11.14,-27.71 26.11,-27.71 19.62,0 28.77,25.51 28.77,38.33 z m -28.12,-55.8 c -24.68,0 -47.1,18.82 -47.1,47.09 0,25.26 16.93,54.57 47.7,54.57 25.01,0 48.17,-17.69 48.16,-46.12 0,-21.41 -14.44,-55.54 -48.76,-55.54"
         style="fill:#ffffff;fill-opacity:1;fill-rule:nonzero;stroke:none"
         id="path120" />
      <path
         d="m 2434.91,2310.41 c 17,0 40.58,14.72 40.58,34.5 0,13.64 -10.59,24.28 -24.18,24.28 -15.91,0 -40.15,-14.13 -40.15,-34.11 0,-10.65 8.14,-24.67 23.75,-24.67 z m 3.43,-19.64 c -29.46,0 -45.7,28.4 -45.7,47.44 0,28.88 31.09,50.95 55.37,50.95 26.48,0 45.91,-25.18 45.91,-47.99 0,-25.92 -27.08,-50.4 -55.58,-50.4"
         style="fill:#ffffff;fill-opacity:1;fill-rule:nonzero;stroke:none"
         id="path122" />
      <path
         d="m 2512.32,1978.77 c 17.17,0 29.74,10.5 29.74,25.92 0,18.4 -21.29,27.76 -37.75,27.76 -21.05,0 -29.6,-13.69 -29.6,-26.56 0,-20.16 24.71,-27.12 37.61,-27.12 z m -54.92,26.81 c 0,23.9 16.2,47.4 48.38,47.4 27.05,0 53.21,-16.68 53.21,-46.63 0,-24.61 -15.77,-48.26 -47.73,-48.26 -27.34,0 -53.86,17.26 -53.86,47.49"
         style="fill:#ffffff;fill-opacity:1;fill-rule:nonzero;stroke:none"
         id="path124" />
      <path
         d="m 2476.72,1880.66 c 0,-7.39 6.22,-13.27 13.14,-13.27 6.19,0 10.06,3.39 13.7,11.45 l 3.03,7.21 -23.93,11.25 -3.99,-8.92 c -1.33,-2.94 -1.95,-5.5 -1.95,-7.72 z m -56.13,10.79 28.78,-0.13 c 13.65,-0.11 14.7,3.24 17.93,10.37 l 0.96,2.12 -34.64,16.07 8.31,18.38 87.63,-40.46 -11.24,-25.21 c -7.67,-16.97 -14.24,-25.53 -30.32,-25.53 -10.31,0 -25.46,8.58 -25.33,24.36 0.02,2.43 0.35,5.03 1.14,7.79 -5.16,-8.96 -18.14,-7.72 -26.27,-7.71 l -25.92,0.1 8.97,19.85"
         style="fill:#ffffff;fill-opacity:1;fill-rule:nonzero;stroke:none"
         id="path126" />
      <path
         d="m 2413.23,1755.99 c 10.22,0 16.14,3.06 27.88,17.5 l 3.67,4.5 -49.87,40.58 -6.14,-7.53 c -6,-7.39 -9.13,-14.66 -9.13,-21.66 0,-9.32 4.61,-17.51 14.06,-25.21 6.78,-5.52 13.03,-8.18 19.53,-8.18 z m -51.57,28.39 c 0,19.81 9.17,30.59 20.8,44.9 l 12.56,15.42 75.09,-61.12 -16.86,-20.7 c -9.52,-11.7 -20.74,-26.09 -42.28,-26.09 -12.26,0 -23.03,5.68 -30.65,11.89 -9.54,7.76 -18.66,20.91 -18.66,35.7"
         style="fill:#ffffff;fill-opacity:1;fill-rule:nonzero;stroke:none"
         id="path128" />
    </g>
  </g>
</svg>
