<?xml version="1.0" encoding="UTF-8" standalone="no"?>
<!DOCTYPE svg PUBLIC "-//W3C//DTD SVG 1.1//EN" "http://www.w3.org/Graphics/SVG/1.1/DTD/svg11.dtd">
<svg xmlns="http://www.w3.org/2000/svg" xmlns:xlink="http://www.w3.org/1999/xlink" version="1.1" width="282.40834pt" height="128.14722pt" viewBox="0 0 282.40834 128.14722">
<g enable-background="new">
<symbol id="font_0_5">
<path d="M .335 .605 C .344 .64100006 .347 .652 .441 .652 C .47100006 .652 .479 .652 .479 .671 C .479 .683 .46800003 .683 .46300004 .683 C .43 .683 .34800003 .68 .315 .68 C .285 .68 .21200001 .683 .18200001 .683 C .17500001 .683 .163 .683 .163 .66300007 C .163 .652 .172 .652 .191 .652 C .193 .652 .21200001 .652 .229 .65000006 C .24700001 .648 .256 .647 .256 .634 C .256 .63000008 .255 .62700006 .252 .615 L .118 .078 C .107999999 .039 .106000009 .031000002 .026999999 .031000002 C .010000002 .031000002 0 .031000002 0 .011000001 C 0 0 .009 0 .026999999 0 L .49000005 0 C .51400008 0 .51500007 0 .521 .017 L .6000001 .23300001 C .60400006 .24400002 .60400006 .246 .60400006 .24700001 C .60400006 .25100003 .6010001 .25800003 .59200009 .25800003 C .58300009 .25800003 .5820001 .25300003 .57500007 .23700002 C .54100009 .14500001 .497 .031000002 .324 .031000002 L .23000002 .031000002 C .21600002 .031000002 .21400002 .031000002 .208 .032 C .19800002 .033 .19500001 .034 .19500001 .042000005 C .19500001 .045 .19500001 .047000003 .2 .065000008 L .335 .605 Z "/>
</symbol>
<use xlink:href="#font_0_5" transform="matrix(27.673888,0,0,-27.673888,23.768162,29.038887)"/>
<symbol id="font_0_4">
<path d="M .34 .606 C .349 .642 .352 .652 .43100003 .652 C .455 .652 .463 .652 .463 .671 C .463 .683 .45200003 .683 .448 .683 C .419 .683 .345 .68 .316 .68 C .286 .68 .213 .683 .183 .683 C .176 .683 .16300002 .683 .16300002 .66300007 C .16300002 .652 .17200002 .652 .19100002 .652 C .23300001 .652 .26 .652 .26 .633 C .26 .628 .26 .62600007 .25800003 .61700007 L .123 .078 C .114 .041 .11100001 .031000002 .031999999 .031000002 C .009 .031000002 0 .031000002 0 .011000001 C 0 0 .012000002 0 .015000001 0 C .044 0 .117000009 .003 .146 .003 C .176 .003 .25 0 .28 0 C .28800003 0 .3 0 .3 .019000002 C .3 .031000002 .292 .031000002 .27 .031000002 C .252 .031000002 .24700001 .031000002 .227 .033 C .206 .035 .20200002 .039 .20200002 .05 C .20200002 .058000003 .204 .066 .206 .07300001 L .34 .606 Z "/>
</symbol>
<use xlink:href="#font_0_4" transform="matrix(27.673888,0,0,-27.673888,137.88536,29.038887)"/>
<symbol id="font_0_6">
<path d="M .33400003 .63600006 C .34 .66 .343 .67 .36200003 .67300006 C .37100003 .674 .40300004 .674 .423 .674 C .49400003 .674 .605 .674 .605 .57500007 C .605 .54100009 .58900007 .47200004 .55 .43300004 C .524 .40700004 .47100003 .37500004 .381 .37500004 L .269 .37500004 L .33400003 .63600006 M .47800005 .36200003 C .579 .38400004 .698 .45400004 .698 .55500009 C .698 .64100006 .60800006 .70500007 .477 .70500007 L .192 .70500007 C .17200002 .70500007 .16300002 .70500007 .16300002 .68500009 C .16300002 .674 .17200002 .674 .19100002 .674 C .19300002 .674 .21200001 .674 .229 .67200008 C .24700001 .67 .256 .669 .256 .656 C .256 .65200009 .255 .64900007 .252 .637 L .11800001 .1 C .108 .061000006 .106 .053000004 .027000003 .053000004 C .009 .053000004 0 .053000004 0 .033000005 C 0 .022000002 .012000002 .022000002 .014000002 .022000002 C .042000005 .022000002 .11200001 .025000003 .14000002 .025000003 C .16800002 .025000003 .239 .022000002 .26700003 .022000002 C .275 .022000002 .287 .022000002 .287 .042000005 C .287 .053000004 .278 .053000004 .259 .053000004 C .222 .053000004 .194 .053000004 .194 .071 C .194 .07700001 .19600001 .082 .197 .088 L .263 .35300005 L .382 .35300005 C .473 .35300005 .491 .29700003 .491 .26200003 C .491 .24700001 .48300005 .216 .477 .193 C .47000004 .165 .46100004 .128 .46100004 .108 C .46100004 0 .58100005 0 .59400007 0 C .679 0 .71400007 .101 .71400007 .115 C .71400007 .127 .703 .127 .702 .127 C .693 .127 .69100007 .120000008 .689 .113000009 C .66400006 .039000006 .62100008 .022000002 .59800007 .022000002 C .565 .022000002 .558 .044000005 .558 .083000008 C .558 .11400001 .564 .165 .568 .19700001 C .57 .21100001 .572 .23 .572 .24400002 C .572 .32100005 .505 .35200004 .47800005 .36200003 Z "/>
</symbol>
<use xlink:href="#font_0_6" transform="matrix(27.673888,0,0,-27.673888,248.3874,29.647713)"/>
<symbol id="font_0_2">
<path d="M .71000006 .71700009 C .71000006 .72 .708 .72700008 .699 .72700008 C .69600006 .72700008 .69500008 .7260001 .684 .71500006 L .614 .6380001 C .605 .65200009 .559 .72700008 .448 .72700008 C .22500001 .72700008 0 .50600007 0 .27400003 C 0 .115 .11100002 0 .273 0 C .317 0 .36200003 .0090000019 .398 .024000003 C .448 .044000005 .467 .065000008 .485 .085 C .49400003 .060000004 .52000007 .023000002 .53000006 .023000002 C .535 .023000002 .537 .026000003 .537 .027000003 C .53900006 .029000003 .549 .067 .554 .088 L .573 .165 C .577 .18200001 .582 .199 .586 .216 C .597 .261 .598 .263 .65500006 .26400004 C .66 .26400004 .671 .26500003 .671 .28400005 C .671 .29100005 .666 .29500003 .658 .29500003 C .63500007 .29500003 .57600006 .29200004 .55300006 .29200004 C .522 .29200004 .444 .29500003 .41300003 .29500003 C .404 .29500003 .39200003 .29500003 .39200003 .27500005 C .39200003 .26400004 .4 .26400004 .42200003 .26400004 C .423 .26400004 .45200003 .26400004 .47500003 .26200003 C .501 .25900004 .50600007 .256 .50600007 .24300002 C .50600007 .23400001 .495 .18900001 .485 .15200001 C .45700003 .042000005 .327 .031000004 .292 .031000004 C .19600001 .031000004 .091000009 .088 .091000009 .24100001 C .091000009 .272 .10100001 .43700005 .20600002 .56700006 C .26 .63500007 .357 .69600006 .45600004 .69600006 C .558 .69600006 .61700007 .619 .61700007 .503 C .61700007 .46300004 .614 .46200005 .614 .45200003 C .614 .44200004 .625 .44200004 .629 .44200004 C .642 .44200004 .642 .44400005 .647 .46200005 L .71000006 .71700009 Z "/>
</symbol>
<use xlink:href="#font_0_2" transform="matrix(27.673888,0,0,-27.673888,22.611468,118.628269)"/>
<symbol id="font_0_1">
<path d="M .71000006 .71700009 C .71000006 .72 .708 .72700008 .699 .72700008 C .69600006 .72700008 .69500008 .7260001 .684 .71500006 L .614 .6380001 C .605 .65200009 .559 .72700008 .448 .72700008 C .22500001 .72700008 0 .50600007 0 .27400003 C 0 .109000008 .118000019 0 .271 0 C .358 0 .43400003 .040000004 .487 .086 C .58000007 .16800002 .597 .25900004 .597 .26200003 C .597 .272 .587 .272 .58500006 .272 C .579 .272 .574 .27 .572 .26200003 C .563 .23300001 .54 .162 .47100003 .104 C .402 .048 .33900003 .031000004 .287 .031000004 C .19700001 .031000004 .091000009 .083000008 .091000009 .23900001 C .091000009 .29600004 .112 .45800004 .21200003 .57500007 C .273 .646 .367 .69600006 .45600004 .69600006 C .558 .69600006 .61700007 .619 .61700007 .503 C .61700007 .46300004 .614 .46200005 .614 .45200003 C .614 .44200004 .625 .44200004 .629 .44200004 C .642 .44200004 .642 .44400005 .647 .46200005 L .71000006 .71700009 Z "/>
</symbol>
<use xlink:href="#font_0_1" transform="matrix(27.673888,0,0,-27.673888,134.61704,118.628269)"/>
<symbol id="font_0_3">
<path d="M .72400006 .606 C .73300006 .642 .7350001 .652 .8080001 .652 C .83400008 .652 .84200009 .652 .84200009 .67200008 C .84200009 .683 .8310001 .683 .82800009 .683 C .8000001 .683 .72800007 .68 .70000007 .68 C .67100009 .68 .6000001 .683 .57100006 .683 C .5630001 .683 .55200007 .683 .55200007 .66300007 C .55200007 .652 .56100007 .652 .58000007 .652 C .5820001 .652 .6010001 .652 .61800006 .65000006 C .63600006 .648 .64500007 .647 .64500007 .634 C .64500007 .63000008 .64400008 .628 .64100006 .615 L .58100005 .37100003 L .27600003 .37100003 L .335 .606 C .344 .642 .347 .652 .41900004 .652 C .44500003 .652 .453 .652 .453 .67200008 C .453 .683 .44200004 .683 .439 .683 C .411 .683 .33900003 .68 .31100003 .68 C .282 .68 .211 .683 .18200001 .683 C .17400001 .683 .163 .683 .163 .66300007 C .163 .652 .172 .652 .191 .652 C .193 .652 .21200001 .652 .229 .65000006 C .24700001 .648 .256 .647 .256 .634 C .256 .63000008 .255 .62700006 .252 .615 L .118 .078 C .107999999 .039 .106000009 .031000002 .026999999 .031000002 C .009 .031000002 0 .031000002 0 .011000001 C 0 0 .012000002 0 .014000002 0 C .042 0 .113000009 .003 .141 .003 C .162 .003 .184 .002 .20500002 .002 C .227 .002 .24900002 0 .27 0 C .278 0 .29000003 0 .29000003 .020000002 C .29000003 .031000002 .28100003 .031000002 .26200003 .031000002 C .225 .031000002 .19700001 .031000002 .19700001 .049000004 C .19700001 .055000005 .199 .060000004 .2 .066 L .268 .34 L .5730001 .34 C .5310001 .17400001 .5080001 .079 .50400009 .064 C .49400006 .032 .475 .031000002 .41300003 .031000002 C .398 .031000002 .38900004 .031000002 .38900004 .011000001 C .38900004 0 .40100003 0 .40300004 0 C .43100003 0 .50200006 .003 .53000006 .003 C .55100008 .003 .5730001 .002 .59400007 .002 C .61600008 .002 .6380001 0 .65900006 0 C .66700008 0 .6790001 0 .6790001 .020000002 C .6790001 .031000002 .6700001 .031000002 .6510001 .031000002 C .6140001 .031000002 .586 .031000002 .586 .049000004 C .586 .055000005 .58800008 .060000004 .58900007 .066 L .72400006 .606 Z "/>
</symbol>
<use xlink:href="#font_0_3" transform="matrix(27.673888,0,0,-27.673888,246.31818,118.01944)"/>
<path transform="matrix(2.7777777,0,0,-2.7777777,145.85832,64.075)" stroke-width=".39848" stroke-linecap="butt" stroke-miterlimit="10" stroke-linejoin="miter" fill="none" stroke="#000000" d="M -40.95174 8.76726 L -40.95174 -8.36877 "/>
<path transform="matrix(0,2.7777777,2.7777777,0,32.103498,87.87502)" stroke-width=".39848" stroke-linecap="round" stroke-linejoin="round" fill="none" stroke="#000000" d="M -2.07213 2.39091 C -1.69356 .95633 -.84995 .27893 0 0 C -.84995 -.27893 -1.69356 -.95633 -2.07213 -2.39091 "/>
<symbol id="font_1_1">
<path d="M .38700003 .091 C .38200004 .071 .37300004 .037 .37300004 .032 C .37300004 .010000001 .39100004 0 .40700004 0 C .42500005 0 .44100005 .013 .44600005 .022 C .45100004 .031000004 .45900006 .063 .46400006 .084 C .46900005 .103 .48000003 .14900002 .48600007 .17400001 C .49200005 .19600001 .49800004 .21800001 .503 .24100001 C .51400008 .284 .51400008 .286 .53400006 .317 C .56600007 .366 .61600008 .423 .69400009 .423 C .75000008 .423 .753 .377 .753 .35300002 C .753 .293 .71000006 .18200001 .69400009 .14000002 C .683 .112 .679 .103 .679 .086 C .679 .033000005 .72300007 0 .77400007 0 C .8740001 0 .91800007 .13800001 .91800007 .15300001 C .91800007 .16600001 .90500006 .16600001 .90200009 .16600001 C .8880001 .16600001 .887 .16000001 .8830001 .14900002 C .8600001 .069000009 .81700006 .028 .77700009 .028 C .75600007 .028 .75200006 .042000005 .75200006 .063 C .75200006 .086 .757 .099 .77500006 .14400001 C .78700008 .17500001 .82800009 .28100003 .82800009 .337 C .82800009 .35300002 .82800009 .395 .79100009 .42400003 C .77400007 .437 .74500009 .451 .6980001 .451 C .60800006 .451 .55300006 .39200003 .521 .35 C .513 .435 .44200004 .451 .39100004 .451 C .30800004 .451 .25200004 .4 .22200002 .36 C .21500002 .42900003 .156 .451 .114999998 .451 C .072 .451 .049 .42000003 .036000004 .397 C .014000002 .36 0 .303 0 .298 C 0 .285 .014000002 .285 .017 .285 C .031 .285 .032 .28800003 .039 .315 C .054 .374 .073 .423 .112 .423 C .138 .423 .145 .40100003 .145 .374 C .145 .35500003 .136 .31800003 .12900001 .291 C .12200001 .264 .112 .22300002 .10700001 .20100002 L .075 .073 C .07100001 .060000004 .065 .035 .065 .032 C .065 .010000001 .083000008 0 .09900001 0 C .117 0 .133 .013 .138 .022 C .143 .031000004 .15100001 .063 .156 .084 C .161 .103 .172 .14900002 .178 .17400001 C .184 .19600001 .19000001 .21800001 .19500001 .24100001 C .20600002 .282 .20800002 .29 .237 .331 C .26500003 .37100003 .31200005 .423 .38700003 .423 C .44500003 .423 .44600005 .372 .44600005 .35300002 C .44600005 .328 .44300003 .315 .42900003 .259 L .38700003 .091 Z "/>
</symbol>
<use xlink:href="#font_1_1" transform="matrix(19.371666,0,0,-19.371666,6.868803,68.438159)"/>
<symbol id="font_2_2">
<path d="M .04 .35000003 C .04 .36700005 .04 .38800005 .020000004 .38800005 C 0 .38800005 0 .37100003 0 .35400004 L 0 .034 C 0 .0040000008 .0030000024 0 .035000005 0 L .35200004 0 C .37000004 0 .38700003 0 .38700003 .020000002 C .38700003 .040000004 .36900003 .040000004 .35200004 .040000004 L .04 .040000004 L .04 .35000003 Z "/>
</symbol>
<use xlink:href="#font_2_2" transform="matrix(27.673888,0,0,-27.673888,110.480289,50.40882)"/>
<path transform="matrix(2.7777777,0,0,-2.7777777,145.85832,64.075)" stroke-width=".39848" stroke-linecap="butt" stroke-miterlimit="10" stroke-linejoin="miter" fill="none" stroke="#000000" d="M -7.69827 15.10332 L -32.67438 15.10332 "/>
<path transform="matrix(-2.7777777,0,0,2.7777777,54.54274,22.12133)" stroke-width=".39848" stroke-linecap="round" stroke-linejoin="round" fill="none" stroke="#000000" d="M -2.07213 2.39091 C -1.69356 .95633 -.84995 .27893 0 0 C -.84995 -.27893 -1.69356 -.95633 -2.07213 -2.39091 "/>
<path transform="matrix(2.7777777,0,0,-2.7777777,145.85832,64.075)" stroke-width=".39848" stroke-linecap="butt" stroke-miterlimit="10" stroke-linejoin="miter" fill="none" stroke="#000000" d="M 6.44049 15.10332 L 31.61482 15.10332 "/>
<path transform="matrix(2.7777777,0,0,-2.7777777,234.23072,22.12133)" stroke-width=".39848" stroke-linecap="round" stroke-linejoin="round" fill="none" stroke="#000000" d="M -2.07213 2.39091 C -1.69356 .95633 -.84995 .27893 0 0 C -.84995 -.27893 -1.69356 -.95633 -2.07213 -2.39091 "/>
<path transform="matrix(2.7777777,0,0,-2.7777777,145.85832,64.075)" stroke-width=".39848" stroke-linecap="butt" stroke-miterlimit="10" stroke-linejoin="miter" fill="none" stroke="#000000" d="M -.62888 8.76726 L -.62888 -8.36877 "/>
<path transform="matrix(0,2.7777777,2.7777777,0,144.11144,87.87502)" stroke-width=".39848" stroke-linecap="round" stroke-linejoin="round" fill="none" stroke="#000000" d="M -2.07213 2.39091 C -1.69356 .95633 -.84995 .27893 0 0 C -.84995 -.27893 -1.69356 -.95633 -2.07213 -2.39091 "/>
<path transform="matrix(2.7777777,0,0,-2.7777777,145.85832,64.075)" stroke-width=".39848" stroke-linecap="butt" stroke-miterlimit="10" stroke-linejoin="miter" fill="none" stroke="#000000" d="M 40.32285 8.76726 L 40.32285 -8.36877 "/>
<path transform="matrix(0,2.7777777,2.7777777,0,257.86625,87.87502)" stroke-width=".39848" stroke-linecap="round" stroke-linejoin="round" fill="none" stroke="#000000" d="M -2.07213 2.39091 C -1.69356 .95633 -.84995 .27893 0 0 C -.84995 -.27893 -1.69356 -.95633 -2.07213 -2.39091 "/>
<path transform="matrix(2.7777777,0,0,-2.7777777,145.85832,64.075)" stroke-width=".39848" stroke-linecap="butt" stroke-miterlimit="10" stroke-linejoin="miter" fill="none" stroke="#000000" d="M -9.03426 -16.92978 L -32.14789 -16.92978 "/>
<path transform="matrix(-2.7777777,0,0,2.7777777,56.005224,111.102169)" stroke-width=".39848" stroke-linecap="round" stroke-linejoin="round" fill="none" stroke="#000000" d="M -2.07213 2.39091 C -1.69356 .95633 -.84995 .27893 0 0 C -.84995 -.27893 -1.69356 -.95633 -2.07213 -2.39091 "/>
<path transform="matrix(2.7777777,0,0,-2.7777777,145.85832,64.075)" stroke-width=".39848" stroke-linecap="butt" stroke-miterlimit="10" stroke-linejoin="miter" fill="none" stroke="#000000" d="M 7.77647 -16.92978 L 30.8901 -16.92978 "/>
<path transform="matrix(2.7777777,0,0,-2.7777777,232.2176,111.102169)" stroke-width=".39848" stroke-linecap="round" stroke-linejoin="round" fill="none" stroke="#000000" d="M -2.07213 2.39091 C -1.69356 .95633 -.84995 .27893 0 0 C -.84995 -.27893 -1.69356 -.95633 -2.07213 -2.39091 "/>
<symbol id="font_2_1">
<path d="M .35200004 .34800003 C .37000004 .34800003 .38700003 .34800003 .38700003 .368 C .38700003 .38799999 .36900003 .38799999 .35200004 .38799999 L .035000005 .38799999 C .0030000024 .38799999 0 .38500003 0 .354 L 0 .03399998 C 0 .01699999 0 0 .020000004 0 C .04 0 .04 .020999998 .04 .037999989 L .04 .34800003 L .35200004 .34800003 Z "/>
</symbol>
<use xlink:href="#font_2_1" transform="matrix(27.673888,0,0,-27.673888,218.77472,85.83179)"/>
</g>
</svg>
